<?xml version="1.0" standalone="no"?>
<!DOCTYPE svg PUBLIC "-//W3C//DTD SVG 20010904//EN"
 "http://www.w3.org/TR/2001/REC-SVG-20010904/DTD/svg10.dtd">
<svg version="1.0" xmlns="http://www.w3.org/2000/svg"
 width="1080.000000pt" height="1080.000000pt" viewBox="0 0 1080.000000 1080.000000"
 preserveAspectRatio="xMidYMid meet">
<metadata>
Created by potrace 1.14, written by Peter Selinger 2001-2017
</metadata>
<g transform="translate(0.000000,1080.000000) scale(0.100000,-0.100000)"
fill="#000000" stroke="none">
<path d="M5025 10790 c-153 -14 -236 -22 -258 -25 -21 -3 -84 -12 -157 -21
-19 -2 -46 -6 -60 -9 -14 -2 -41 -7 -60 -10 -123 -19 -316 -62 -500 -111 -626
-167 -1242 -462 -1770 -848 -102 -74 -272 -206 -280 -217 -3 -4 -23 -22 -45
-39 -154 -122 -468 -438 -630 -635 -28 -33 -53 -62 -56 -65 -36 -32 -271 -361
-376 -526 -425 -668 -720 -1506 -798 -2264 -3 -30 -8 -64 -10 -75 -20 -99 -28
-776 -12 -960 17 -189 41 -373 68 -525 12 -63 23 -126 26 -140 11 -62 55 -246
87 -360 303 -1093 948 -2073 1824 -2771 161 -128 141 -112 257 -195 322 -228
711 -443 1045 -579 63 -25 129 -52 145 -60 41 -18 347 -120 421 -141 355 -97
710 -166 974 -189 36 -3 108 -10 160 -14 157 -14 756 -6 912 12 192 23 226 27
288 37 30 5 73 12 95 16 22 3 83 15 135 26 52 10 106 22 120 24 53 11 269 67
360 94 434 129 871 321 1250 548 190 114 524 349 645 454 17 14 66 56 110 94
194 166 443 418 600 609 28 33 53 62 56 65 3 3 52 66 107 140 56 74 106 140
110 145 17 23 182 275 224 345 84 138 236 430 317 613 201 449 362 1047 416
1542 4 33 9 74 11 90 26 217 26 864 -1 1080 -6 51 -14 118 -20 170 -11 90 -55
338 -81 450 -14 61 -27 118 -29 127 -31 142 -130 456 -204 651 -121 318 -319
706 -503 986 -26 41 -48 76 -48 78 0 2 -4 9 -10 16 -5 7 -49 66 -96 132 -435
605 -971 1095 -1634 1495 -146 88 -499 265 -655 329 -71 29 -143 58 -160 66
-77 34 -439 148 -600 188 -273 69 -593 125 -810 142 -44 4 -91 9 -105 12 -40
8 -706 11 -795 3z"/>
</g>
</svg>
