<?xml version="1.0" standalone="no"?>
<!DOCTYPE svg PUBLIC "-//W3C//DTD SVG 20010904//EN"
 "http://www.w3.org/TR/2001/REC-SVG-20010904/DTD/svg10.dtd">
<svg version="1.0" xmlns="http://www.w3.org/2000/svg"
 width="1024.000000pt" height="1024.000000pt" viewBox="0 0 1024.000000 1024.000000"
 preserveAspectRatio="xMidYMid meet">
<metadata>
Created by potrace 1.14, written by Peter Selinger 2001-2017
</metadata>
<g transform="translate(0.000000,1024.000000) scale(0.100000,-0.100000)"
fill="#000000" stroke="none">
<path d="M2240 10233 c-359 -34 -610 -102 -895 -243 -487 -240 -854 -606
-1095 -1095 -114 -231 -197 -499 -225 -730 -4 -27 -9 -61 -13 -75 -4 -14 -7
-1332 -9 -2930 -2 -3152 -4 -2982 53 -3260 72 -351 246 -715 478 -1005 359
-446 885 -756 1457 -859 174 -31 209 -31 3144 -31 l2920 0 135 22 c341 56 623
159 905 330 219 134 436 323 593 518 31 39 60 72 64 75 27 20 173 264 238 395
132 269 212 547 238 830 9 104 9 5774 0 5885 -18 202 -76 451 -154 650 -291
744 -937 1299 -1714 1470 -262 58 -33 54 -3190 56 -1592 0 -2911 -1 -2930 -3z"/>
</g>
</svg>
