<?xml version="1.0" standalone="no"?>
<!DOCTYPE svg PUBLIC "-//W3C//DTD SVG 20010904//EN"
 "http://www.w3.org/TR/2001/REC-SVG-20010904/DTD/svg10.dtd">
<svg version="1.0" xmlns="http://www.w3.org/2000/svg"
 width="1024.000000pt" height="1024.000000pt" viewBox="0 0 1024.000000 1024.000000"
 preserveAspectRatio="xMidYMid meet">
<metadata>
Created by potrace 1.14, written by Peter Selinger 2001-2017
</metadata>
<g transform="translate(0.000000,1024.000000) scale(0.100000,-0.100000)"
fill="#000000" stroke="none">
<path d="M4915 9570 c-3 -5 -4 -14 -1 -19 4 -5 -23 -11 -59 -13 -39 -2 -65 1
-65 7 0 7 -3 7 -8 0 -11 -16 -46 -19 -36 -3 6 10 5 11 -7 1 -8 -7 -44 -14 -79
-17 -36 -3 -82 -9 -104 -12 -30 -5 -37 -3 -31 8 3 7 1 6 -7 -3 -9 -10 -28 -15
-60 -15 -25 1 -44 -2 -41 -6 2 -5 -6 -8 -19 -9 -13 0 -30 -2 -38 -4 -8 -2 -33
-6 -55 -10 -22 -3 -56 -10 -75 -15 -19 -5 -51 -12 -70 -14 -37 -6 -94 -20
-225 -56 -44 -12 -88 -23 -97 -23 -10 -1 -18 -4 -18 -8 0 -7 -66 -24 -87 -22
-7 0 -13 -4 -13 -9 0 -6 -7 -8 -15 -4 -8 3 -15 1 -15 -4 0 -6 -6 -10 -14 -10
-7 0 -35 -9 -62 -19 -244 -96 -257 -101 -273 -88 -14 10 -14 10 -3 -4 10 -14
6 -18 -33 -33 -24 -10 -47 -17 -51 -16 -4 1 -10 -2 -13 -7 -8 -11 -114 -59
-116 -53 -1 3 -9 -3 -19 -13 -10 -9 -22 -15 -27 -12 -5 4 -9 2 -9 -4 0 -6 -18
-19 -39 -30 -29 -14 -42 -16 -51 -7 -8 8 -10 7 -5 -5 7 -18 -19 -34 -37 -22
-7 3 -8 1 -4 -6 5 -8 -3 -16 -23 -24 -17 -6 -31 -15 -31 -19 0 -4 -9 -8 -20
-8 -11 0 -20 -5 -20 -11 0 -6 -7 -8 -17 -5 -10 4 -14 4 -10 0 4 -4 -12 -19
-35 -33 -24 -14 -47 -29 -53 -33 -39 -33 -149 -96 -158 -91 -5 3 -7 2 -4 -3 3
-5 -11 -21 -31 -34 -20 -14 -39 -27 -42 -30 -3 -3 -35 -29 -72 -57 -42 -33
-68 -48 -72 -40 -3 8 -5 8 -5 -2 -1 -19 -50 -63 -62 -55 -5 3 -8 1 -7 -4 2 -5
-17 -26 -42 -47 -25 -20 -69 -59 -98 -86 -29 -27 -58 -47 -63 -43 -5 3 -8 0
-7 -8 2 -7 -3 -12 -10 -10 -6 1 -11 -2 -10 -6 4 -13 -105 -121 -116 -115 -5 3
-6 1 -3 -4 8 -13 -27 -46 -38 -36 -4 5 -5 3 -2 -3 4 -6 -8 -25 -26 -41 -17
-16 -49 -51 -71 -76 -21 -26 -43 -44 -49 -40 -6 3 -7 1 -3 -5 6 -10 -11 -32
-90 -118 -17 -18 -29 -36 -26 -38 3 -3 -3 -8 -12 -12 -9 -3 -16 -11 -16 -18
-1 -21 -58 -79 -71 -71 -8 6 -10 4 -4 -4 10 -17 -56 -113 -74 -106 -11 4 -12
3 -1 -10 10 -12 9 -16 -4 -21 -9 -3 -16 -12 -16 -18 0 -7 -8 -21 -18 -32 -10
-10 -21 -27 -25 -38 -4 -10 -13 -16 -22 -12 -8 3 -17 0 -21 -6 -4 -6 -3 -8 4
-4 6 3 13 2 17 -3 3 -5 -3 -14 -12 -20 -10 -5 -17 -13 -17 -18 1 -4 -9 -27
-23 -50 -17 -30 -29 -40 -41 -37 -12 4 -14 3 -4 -3 10 -8 5 -24 -23 -74 -20
-35 -43 -69 -50 -75 -8 -6 -12 -14 -9 -17 9 -9 -42 -88 -51 -80 -4 5 -5 3 -1
-4 3 -6 -8 -40 -26 -75 -18 -35 -31 -66 -30 -70 1 -5 -3 -8 -8 -8 -5 0 -9 -3
-8 -7 1 -5 -6 -27 -16 -50 -13 -31 -22 -40 -34 -36 -14 4 -14 3 -3 -5 12 -9
11 -16 -5 -49 -10 -21 -18 -41 -19 -45 0 -3 -3 -10 -8 -14 -4 -4 -7 -16 -7
-26 0 -10 -4 -18 -10 -18 -5 0 -9 -3 -8 -7 3 -10 -21 -81 -35 -108 -6 -11 -12
-22 -12 -25 -4 -27 -41 -130 -47 -130 -4 0 -5 -7 -2 -15 4 -8 1 -15 -5 -15 -6
0 -8 -7 -4 -17 5 -12 3 -14 -7 -8 -9 5 -11 4 -6 -3 8 -14 -11 -92 -23 -92 -5
0 -7 -10 -3 -22 3 -12 1 -19 -4 -15 -6 3 -9 -7 -8 -24 1 -16 -2 -29 -7 -29 -4
0 -5 -7 -2 -17 4 -10 2 -14 -4 -10 -6 4 -8 -4 -6 -21 3 -16 1 -22 -4 -15 -5 7
-9 -7 -10 -34 -1 -25 -5 -49 -10 -52 -4 -3 -8 -17 -9 -31 0 -16 -5 -24 -14
-22 -11 3 -11 0 -1 -12 7 -8 10 -19 7 -24 -3 -5 -8 -31 -12 -58 -3 -27 -9 -53
-12 -59 -8 -12 -9 -18 -10 -73 -1 -24 -6 -41 -11 -38 -4 3 -7 -6 -5 -21 4 -42
-8 -126 -17 -112 -4 7 -5 -9 -3 -35 3 -35 1 -46 -7 -40 -8 5 -9 3 -4 -7 5 -7
8 -31 6 -54 -7 -110 -13 -131 -33 -119 -7 4 -8 2 -4 -5 4 -6 12 -9 17 -6 5 4
9 -12 9 -35 0 -27 -4 -39 -11 -34 -8 5 -8 1 0 -14 6 -11 8 -35 6 -53 -6 -39
-6 -261 -1 -301 2 -18 -1 -25 -8 -21 -8 5 -8 3 0 -8 13 -16 13 -88 0 -108 -6
-9 -5 -12 1 -8 15 9 23 -39 9 -54 -8 -9 -8 -10 0 -6 8 5 12 -10 13 -49 0 -31
3 -59 6 -62 2 -3 -1 -12 -8 -20 -10 -13 -9 -14 1 -8 10 6 12 1 9 -21 -2 -15
-1 -33 4 -38 4 -6 10 -37 12 -70 3 -33 8 -68 12 -78 4 -10 5 -20 2 -23 -2 -3
2 -30 10 -61 16 -63 12 -85 -14 -77 -15 5 -15 4 -3 -4 8 -6 18 -8 22 -6 15 9
20 -24 7 -48 -11 -21 -11 -22 4 -9 15 12 17 11 16 -10 0 -13 6 -46 14 -74 8
-27 13 -58 11 -67 -1 -10 1 -18 5 -18 8 0 23 -52 27 -90 1 -8 4 -22 8 -31 4
-8 15 -43 25 -76 14 -46 16 -64 7 -73 -8 -9 -8 -11 3 -8 12 3 23 -18 46 -91 5
-18 4 -22 -6 -17 -8 4 -6 1 4 -7 10 -8 19 -24 20 -36 1 -12 5 -21 9 -21 4 0 8
-5 8 -11 0 -5 -4 -8 -9 -4 -5 3 -13 0 -17 -6 -4 -7 -3 -9 2 -6 17 10 29 -6 51
-64 20 -53 20 -58 5 -75 -16 -17 -16 -17 1 -4 16 12 20 12 28 -1 5 -8 9 -18 9
-24 0 -5 -5 -3 -10 5 -7 11 -10 11 -10 2 0 -7 -4 -11 -9 -7 -5 3 -12 1 -16 -4
-3 -6 3 -8 15 -6 31 6 53 -21 38 -48 -10 -19 -9 -20 3 -10 13 10 18 6 29 -25
8 -20 13 -42 12 -48 -1 -7 5 -15 14 -18 9 -4 14 -13 10 -21 -3 -8 -1 -15 4
-15 9 0 26 -39 22 -52 -1 -5 3 -8 9 -8 6 0 8 -7 5 -17 -4 -10 -4 -14 0 -10 7
7 74 -107 74 -126 0 -5 7 -16 16 -25 15 -14 15 -17 -2 -30 -18 -13 -18 -14 4
-7 14 4 22 2 22 -5 0 -6 7 -18 16 -27 8 -9 13 -22 10 -29 -3 -7 0 -16 6 -20 7
-4 8 -3 4 4 -4 7 -5 12 -3 12 5 0 67 -99 67 -108 1 -4 11 -20 24 -36 14 -16
22 -36 18 -44 -4 -11 -2 -13 8 -7 10 6 12 4 7 -8 -4 -10 -2 -16 6 -14 7 1 11
-8 9 -23 -1 -18 1 -21 7 -11 7 11 13 7 27 -15 10 -16 33 -49 51 -73 20 -26 31
-51 28 -60 -3 -9 -3 -12 1 -8 9 9 74 -61 74 -80 0 -8 4 -11 10 -8 5 3 10 2 10
-3 0 -4 28 -41 62 -82 34 -41 56 -70 49 -66 -7 5 15 -19 49 -53 33 -34 55 -61
48 -61 -10 0 -9 -3 2 -9 8 -6 18 -7 24 -4 5 4 7 -1 3 -11 -4 -9 -3 -15 1 -12
14 8 44 -35 37 -52 -5 -13 -4 -14 6 -5 10 10 33 -8 108 -84 53 -52 95 -100 93
-105 -1 -5 2 -7 7 -4 5 4 30 -14 55 -38 25 -24 46 -42 46 -40 0 2 9 -4 19 -13
11 -9 17 -21 14 -26 -3 -6 -2 -7 4 -4 14 8 83 -51 83 -71 0 -13 2 -14 8 -4 7
10 13 7 27 -12 10 -14 22 -23 25 -21 4 2 24 -11 45 -30 21 -19 42 -35 47 -35
5 0 13 -10 18 -22 5 -13 9 -17 9 -10 1 7 6 10 11 7 6 -4 8 -10 6 -14 -3 -4 0
-8 7 -8 22 0 67 -35 67 -52 0 -14 2 -14 10 -1 8 13 10 13 10 -1 0 -9 7 -16 14
-16 23 0 86 -46 86 -63 0 -13 1 -13 10 0 8 13 10 12 10 -3 0 -10 4 -16 9 -12
5 3 15 0 23 -7 7 -7 19 -14 26 -16 18 -3 95 -53 104 -66 4 -6 8 -8 8 -4 0 4
27 -9 61 -28 33 -18 65 -34 69 -34 5 0 13 -7 18 -16 5 -9 12 -15 15 -15 21 3
27 -1 28 -16 0 -10 3 -13 5 -6 3 7 12 9 20 6 7 -3 11 -10 7 -16 -4 -6 0 -8 10
-4 17 6 24 -7 10 -16 -5 -2 -2 -2 6 0 9 2 12 -3 8 -17 -3 -12 -1 -18 5 -14 5
3 8 15 5 25 -3 11 -1 19 5 19 5 0 12 -9 15 -21 4 -12 8 -16 13 -10 4 7 45 -7
121 -41 63 -29 115 -56 117 -60 2 -4 10 -4 18 -1 8 3 14 -1 14 -8 0 -7 3 -9 7
-6 3 4 12 -1 20 -11 8 -9 11 -11 8 -4 -6 11 -3 12 14 3 11 -7 21 -9 21 -5 0 3
6 2 13 -3 6 -6 49 -23 95 -37 45 -15 82 -32 82 -37 0 -6 -5 -7 -12 -3 -7 4 -8
3 -4 -4 5 -9 12 -9 26 0 15 10 22 8 37 -8 10 -11 14 -13 8 -6 -8 12 -5 13 15
7 14 -4 28 -12 31 -17 3 -5 13 -6 22 -2 10 3 17 1 17 -5 0 -6 7 -8 17 -4 11 4
14 3 9 -5 -5 -8 -1 -11 11 -10 38 3 64 -2 58 -12 -4 -7 2 -9 19 -4 18 4 26 2
26 -7 0 -7 3 -9 7 -5 4 3 13 -4 20 -16 13 -21 13 -21 8 -2 -5 18 -2 21 20 16
14 -2 25 -8 25 -12 0 -5 9 -6 20 -3 11 3 20 0 20 -6 0 -5 7 -8 16 -4 11 4 22
-1 30 -12 8 -10 14 -13 14 -7 0 7 9 12 20 12 11 0 20 -5 20 -11 0 -6 7 -8 16
-5 20 8 107 -12 116 -27 6 -9 8 -9 8 0 0 13 25 12 37 -2 4 -4 2 -5 -6 0 -10 6
-12 4 -7 -4 6 -9 11 -9 21 -1 9 7 23 9 37 4 25 -8 34 -10 88 -12 27 -2 31 -5
20 -12 -8 -5 -10 -10 -5 -10 6 0 16 5 23 12 9 9 12 9 12 0 0 -7 5 -12 11 -12
5 0 7 5 3 12 -5 7 -3 8 7 3 7 -5 26 -8 42 -7 18 2 35 -4 44 -15 8 -10 12 -13
9 -7 -3 7 12 11 44 10 28 0 50 -2 50 -5 0 -3 35 -5 77 -5 91 2 150 -5 133 -16
-8 -5 -7 -9 4 -13 9 -4 15 -3 15 1 -4 22 2 32 14 25 6 -4 20 -6 30 -5 9 2 17
-2 17 -7 0 -6 5 -11 11 -11 5 0 7 5 3 11 -8 14 38 8 48 -6 5 -6 8 -5 8 3 0 18
41 15 56 -5 13 -17 14 -17 8 0 -5 13 -1 17 17 17 19 0 21 -2 9 -10 -10 -7 -11
-10 -2 -10 7 0 15 7 18 15 5 12 10 13 20 4 9 -7 18 -8 27 -2 6 5 36 10 65 11
48 2 53 0 47 -17 -3 -11 -1 -22 4 -26 7 -4 8 1 4 11 -4 12 -3 15 5 10 8 -5 10
-1 5 10 -4 11 -3 15 5 10 6 -3 13 -3 16 2 9 14 108 15 117 0 7 -10 9 -8 9 5 0
15 7 17 40 14 22 -2 42 -1 45 2 8 15 64 11 73 -5 8 -15 10 -15 15 0 4 10 3 15
-3 11 -6 -3 -10 -2 -10 3 0 6 10 9 23 9 12 0 37 3 56 7 27 7 32 5 25 -5 -6
-10 -3 -10 11 1 17 13 18 13 11 0 -4 -9 -1 -8 7 3 17 20 33 22 40 5 4 -10 6
-10 6 0 1 6 6 12 12 12 5 0 7 -6 4 -12 -4 -7 0 -5 8 4 7 9 29 19 48 22 19 3
46 8 62 12 19 4 27 2 27 -7 0 -9 4 -8 13 4 10 14 45 25 97 31 9 1 21 6 28 10
7 4 16 5 19 2 3 -3 12 -1 20 5 10 9 17 8 28 -1 9 -7 18 -10 22 -6 3 3 1 6 -5
6 -16 0 -15 17 1 17 6 0 20 4 30 8 14 6 16 4 10 -11 -5 -15 -3 -15 13 3 10 13
28 24 39 26 11 1 26 6 33 10 6 5 12 5 12 1 0 -3 7 -1 15 6 8 7 22 10 30 6 8
-3 15 -2 15 3 0 13 39 20 43 8 1 -5 11 -11 20 -13 9 -1 15 2 11 7 -3 5 -10 6
-16 3 -6 -4 -9 -1 -6 6 2 7 22 18 43 26 48 17 48 16 40 4 -3 -6 1 -7 10 -4 9
4 13 9 10 12 -9 9 52 31 73 25 11 -2 23 0 26 6 5 7 0 9 -11 5 -15 -5 -16 -4
-3 5 8 6 23 8 34 5 10 -4 16 -2 13 3 -6 9 77 44 97 42 5 0 12 4 15 9 9 15 82
43 94 35 6 -4 7 -1 2 7 -6 10 -3 12 13 8 12 -4 25 -1 29 4 4 7 1 8 -8 4 -8 -4
-5 0 5 8 11 9 30 16 43 16 13 0 23 4 23 9 0 15 33 22 42 9 6 -10 8 -9 8 4 0 9
5 20 11 24 13 8 30 -16 22 -30 -3 -5 -1 -6 5 -2 9 5 9 13 2 26 -9 17 -4 22 37
42 27 12 52 22 56 22 4 1 12 8 17 16 5 8 10 12 10 9 0 -4 51 24 113 62 61 38
120 72 130 75 9 4 17 10 17 15 0 5 7 5 17 2 12 -5 14 -3 8 7 -6 10 -4 12 8 7
9 -3 16 -2 14 2 -1 5 16 23 38 41 37 29 40 30 52 13 12 -16 13 -16 11 7 -2 19
2 25 14 24 10 -1 16 2 13 6 -3 4 2 13 10 20 12 10 18 10 29 1 10 -8 16 -9 21
-1 4 6 2 9 -3 8 -6 -2 -10 0 -11 5 -1 4 2 7 5 6 3 0 15 12 26 27 20 25 22 26
35 8 13 -17 13 -17 11 6 -2 19 2 25 14 24 10 -1 16 2 13 6 -4 6 14 23 130 123
18 15 35 27 39 27 3 0 20 15 37 32 18 18 27 26 21 18 -9 -12 -7 -16 7 -16 13
0 16 6 13 26 -3 14 -1 22 3 18 4 -4 21 9 37 28 18 20 37 33 45 30 8 -4 11 -1
8 5 -8 12 74 99 93 99 7 0 11 4 8 8 -7 12 78 94 88 85 4 -5 6 -3 4 2 -1 6 8
25 22 43 18 24 29 31 44 26 17 -4 18 -3 6 6 -13 9 -10 15 20 42 19 17 28 27
20 23 -8 -4 -3 5 13 21 15 16 52 61 83 99 31 39 60 72 65 73 5 2 7 8 4 13 -3
4 3 14 15 21 11 7 20 16 20 21 0 4 10 21 22 37 16 22 24 27 30 18 6 -9 8 -6 6
8 -3 24 29 77 42 69 6 -3 7 1 4 9 -3 9 -1 16 5 16 6 0 10 3 9 8 -4 11 42 82
53 82 6 0 7 5 4 10 -3 6 4 10 17 10 18 0 20 2 8 10 -12 7 -12 12 -3 21 10 10
14 9 19 -4 3 -9 11 -17 17 -17 5 0 2 9 -7 19 -21 23 -12 44 15 36 11 -4 19 -2
19 4 0 6 -6 10 -12 9 -18 -4 -11 19 25 78 17 29 35 50 40 47 5 -3 7 0 5 8 -6
15 21 69 34 69 4 0 4 7 1 17 -4 10 -2 14 4 10 6 -4 14 0 17 9 4 10 2 13 -7 8
-13 -9 12 26 28 38 6 4 6 8 2 8 -5 0 5 26 22 58 16 31 32 67 36 80 3 12 14 22
23 22 13 0 14 2 4 9 -11 7 -11 10 0 22 7 8 15 23 16 34 2 11 8 22 13 23 5 2 9
12 9 23 0 17 11 24 33 20 4 0 7 4 7 10 0 6 -7 9 -15 5 -21 -8 -19 7 7 40 13
15 17 25 10 21 -8 -6 -10 -3 -6 7 3 9 10 14 14 11 5 -3 6 5 2 17 -3 12 -1 19
4 15 5 -3 10 2 11 11 1 31 59 182 67 175 4 -4 4 0 1 8 -3 9 0 29 6 45 7 16 14
35 16 42 1 6 5 18 7 25 2 6 7 27 11 44 4 18 11 30 16 27 5 -3 6 1 3 9 -3 8 5
47 16 88 23 81 27 99 36 144 3 17 12 59 20 95 15 60 20 85 23 118 0 8 6 10 14
6 9 -6 9 -5 0 7 -7 9 -8 20 -3 28 4 8 6 20 3 27 -3 7 -1 19 3 25 4 7 8 31 10
55 2 49 11 67 26 58 7 -4 8 -2 4 5 -4 6 -12 9 -17 6 -5 -4 -9 1 -9 10 0 9 3
14 8 12 4 -3 7 20 7 51 0 45 3 56 15 54 12 -3 13 -1 3 9 -17 17 -17 51 0 68
10 11 10 13 0 7 -19 -11 -16 5 5 21 13 10 13 13 2 11 -11 -2 -14 5 -11 27 4
35 10 47 20 41 4 -3 13 0 21 5 11 7 8 8 -12 5 l-27 -4 2 64 c1 35 4 64 7 64 6
0 3 202 -3 238 -3 12 1 22 7 22 6 0 4 5 -4 10 -10 6 -11 10 -2 10 6 0 12 5 12
11 0 5 -4 7 -10 4 -5 -3 -10 -1 -10 4 0 6 6 11 13 11 8 0 9 2 1 8 -16 10 -11
108 5 104 7 -1 10 2 6 8 -3 6 -10 8 -15 5 -4 -3 -11 2 -14 11 -4 10 -2 13 6 8
7 -5 8 -3 2 7 -5 8 -10 25 -12 38 -3 22 -1 23 15 10 17 -13 17 -12 -1 8 -13
16 -18 40 -20 92 0 39 -4 71 -8 71 -4 0 -6 14 -4 30 2 17 -1 30 -6 30 -6 0 -8
18 -6 40 2 22 0 40 -5 40 -5 0 -7 14 -5 30 3 17 2 30 -2 30 -4 0 -7 6 -7 13 0
19 -11 76 -26 142 -7 33 -13 69 -13 80 1 11 -2 22 -6 26 -4 3 -9 18 -11 35 -2
16 -7 36 -11 43 -4 7 -8 28 -9 46 -1 21 -5 31 -11 27 -6 -3 -4 3 4 13 8 10 10
16 3 12 -7 -4 -14 1 -18 13 -8 24 2 43 17 34 7 -4 8 -2 4 4 -4 6 -13 9 -20 6
-9 -3 -16 5 -20 23 -4 15 -18 64 -33 108 -14 44 -26 85 -28 90 -3 13 -13 40
-37 100 -11 27 -21 54 -23 60 -1 5 -7 23 -14 38 -6 16 -8 34 -4 40 3 7 2 9 -2
4 -5 -4 -23 28 -42 70 -18 43 -38 86 -43 96 -6 10 -8 22 -5 26 3 5 -2 12 -11
15 -9 4 -14 13 -10 22 4 10 2 13 -6 8 -8 -5 -9 2 -4 22 4 17 3 24 -2 16 -6 -9
-12 -6 -20 13 -10 21 -10 25 0 20 7 -4 5 0 -6 9 -11 9 -15 20 -10 28 4 7 3 10
-1 5 -11 -9 -57 72 -48 86 3 6 1 7 -5 3 -11 -6 -16 6 -13 27 0 4 -3 7 -8 7 -5
0 -21 24 -36 53 -15 28 -41 71 -56 94 -16 23 -29 46 -29 52 0 6 -4 11 -9 11
-9 0 -37 60 -33 72 1 5 -2 7 -7 5 -14 -3 -62 73 -55 85 5 7 2 8 -5 4 -8 -5
-14 -1 -18 12 -3 11 -11 23 -19 26 -8 3 -14 12 -14 21 0 8 -4 15 -10 15 -5 0
-10 10 -10 22 0 12 -3 19 -6 15 -4 -3 -13 1 -22 9 -13 14 -13 17 -1 26 11 8
10 9 -3 4 -12 -3 -22 2 -29 17 -7 12 -18 26 -25 30 -8 4 -14 12 -14 17 0 5
-11 21 -25 36 -13 14 -22 31 -18 37 3 5 2 7 -4 4 -5 -3 -17 3 -26 14 -9 10
-15 19 -12 19 2 0 -14 19 -36 43 -23 23 -57 62 -77 86 -21 24 -47 52 -59 64
-12 11 -20 24 -17 29 3 5 2 7 -3 6 -12 -4 -169 152 -166 163 2 5 0 8 -5 7 -12
-4 -72 45 -72 59 0 7 -6 12 -12 11 -8 -2 -12 6 -10 22 1 18 0 21 -7 11 -7 -12
-20 -6 -62 30 -95 78 -98 82 -92 93 3 6 3 8 -2 4 -12 -11 -66 24 -61 39 3 7 0
15 -6 19 -7 4 -8 3 -4 -4 10 -16 0 -15 -29 4 -14 9 -22 21 -18 27 3 6 1 7 -5
3 -7 -4 -12 -2 -12 5 0 7 -3 9 -6 6 -4 -4 -15 3 -25 15 -11 11 -19 18 -19 14
0 -4 -17 5 -37 21 -21 16 -55 40 -76 52 -20 13 -34 27 -31 33 4 6 2 8 -4 4 -6
-3 -18 1 -26 10 -9 8 -16 13 -16 10 0 -5 -96 55 -117 74 -7 6 -13 8 -13 5 0
-3 -11 2 -25 11 -14 9 -22 21 -18 27 3 6 1 7 -5 3 -15 -9 -73 24 -65 37 3 6 1
7 -5 3 -15 -9 -113 45 -105 58 3 5 1 6 -5 2 -16 -10 -83 23 -75 37 3 5 1 7 -4
4 -14 -9 -136 47 -126 57 4 4 4 7 -2 6 -25 -5 -46 1 -39 12 4 7 3 8 -4 4 -10
-6 -67 15 -190 70 -22 9 -31 18 -26 27 6 8 3 8 -9 -1 -18 -15 -41 -7 -31 10 4
7 2 8 -5 4 -16 -10 -64 2 -56 14 3 5 0 12 -6 16 -8 4 -9 3 -5 -4 11 -17 5 -16
-163 38 -85 28 -163 50 -173 50 -11 0 -17 4 -13 9 3 5 0 13 -6 17 -8 4 -9 3
-5 -4 4 -7 1 -12 -8 -12 -9 0 -16 8 -16 18 0 12 -3 13 -8 4 -7 -10 -25 -8 -88
7 -43 11 -111 25 -151 32 -40 7 -71 15 -68 18 2 4 -9 6 -24 5 -15 -1 -60 4
-101 12 -41 7 -92 13 -112 13 -21 1 -38 4 -38 9 0 4 -41 8 -92 10 -50 1 -98 8
-105 14 -7 6 -13 7 -13 2 0 -5 -35 -6 -77 -3 -43 3 -161 6 -263 6 -164 1 -185
2 -184 17 2 18 -2 20 -11 6z"/>
<path d="M4836 9562 c-3 -5 1 -9 9 -9 8 0 12 4 9 9 -3 4 -7 8 -9 8 -2 0 -6 -4
-9 -8z"/>
<path d="M4360 9520 c-9 -6 -10 -10 -3 -10 6 0 15 5 18 10 8 12 4 12 -15 0z"/>
<path d="M3850 9406 c0 -2 7 -7 16 -10 8 -3 12 -2 9 4 -6 10 -25 14 -25 6z"/>
<path d="M7033 9155 c0 -8 4 -12 9 -9 5 3 6 10 3 15 -9 13 -12 11 -12 -6z"/>
<path d="M3149 9143 c-13 -16 -12 -17 4 -4 9 7 17 15 17 17 0 8 -8 3 -21 -13z"/>
<path d="M7776 8727 c3 -10 9 -15 12 -12 3 3 0 11 -7 18 -10 9 -11 8 -5 -6z"/>
<path d="M1896 8227 c3 -10 9 -15 12 -12 3 3 0 11 -7 18 -10 9 -11 8 -5 -6z"/>
<path d="M1446 7702 c-3 -5 1 -9 9 -9 8 0 12 4 9 9 -3 4 -7 8 -9 8 -2 0 -6 -4
-9 -8z"/>
<path d="M1216 7362 c-2 -4 -1 -14 4 -22 7 -11 9 -9 7 8 -1 24 -3 26 -11 14z"/>
<path d="M9020 7340 c-9 -6 -10 -10 -3 -10 6 0 15 5 18 10 8 12 4 12 -15 0z"/>
<path d="M1150 7279 c0 -5 5 -7 10 -4 6 3 10 8 10 11 0 2 -4 4 -10 4 -5 0 -10
-5 -10 -11z"/>
<path d="M9055 7269 c-4 -6 -5 -12 -2 -15 2 -3 7 2 10 11 7 17 1 20 -8 4z"/>
<path d="M1029 7043 c-13 -16 -12 -17 4 -4 16 13 21 21 13 21 -2 0 -10 -8 -17
-17z"/>
<path d="M1015 6940 c-3 -5 -1 -10 4 -10 6 0 11 5 11 10 0 6 -2 10 -4 10 -3 0
-8 -4 -11 -10z"/>
<path d="M9330 6660 c0 -5 5 -10 11 -10 5 0 7 5 4 10 -3 6 -8 10 -11 10 -2 0
-4 -4 -4 -10z"/>
<path d="M9396 6478 c3 -5 10 -6 15 -3 13 9 11 12 -6 12 -8 0 -12 -4 -9 -9z"/>
<path d="M9415 6421 c-3 -5 -2 -12 3 -15 5 -3 9 1 9 9 0 17 -3 19 -12 6z"/>
<path d="M9450 6341 c0 -6 4 -13 10 -16 6 -3 7 1 4 9 -7 18 -14 21 -14 7z"/>
<path d="M715 6111 c-3 -5 -2 -12 3 -15 5 -3 9 1 9 9 0 17 -3 19 -12 6z"/>
<path d="M9555 5881 c-3 -5 -2 -12 3 -15 5 -3 9 1 9 9 0 17 -3 19 -12 6z"/>
<path d="M656 5822 c-3 -5 1 -9 9 -9 8 0 12 4 9 9 -3 4 -7 8 -9 8 -2 0 -6 -4
-9 -8z"/>
<path d="M590 5801 c0 -6 4 -13 10 -16 6 -3 7 1 4 9 -7 18 -14 21 -14 7z"/>
<path d="M616 5642 c-2 -4 -1 -14 4 -22 7 -11 9 -9 7 8 -1 24 -3 26 -11 14z"/>
<path d="M9596 5627 c3 -10 9 -15 12 -12 3 3 0 11 -7 18 -10 9 -11 8 -5 -6z"/>
<path d="M590 5519 c0 -5 5 -7 10 -4 6 3 10 8 10 11 0 2 -4 4 -10 4 -5 0 -10
-5 -10 -11z"/>
<path d="M615 5460 c-3 -5 -1 -10 4 -10 6 0 11 5 11 10 0 6 -2 10 -4 10 -3 0
-8 -4 -11 -10z"/>
<path d="M616 5402 c-3 -5 1 -9 9 -9 8 0 12 4 9 9 -3 4 -7 8 -9 8 -2 0 -6 -4
-9 -8z"/>
<path d="M9633 5095 c0 -8 4 -12 9 -9 5 3 6 10 3 15 -9 13 -12 11 -12 -6z"/>
<path d="M9676 5078 c3 -5 10 -6 15 -3 13 9 11 12 -6 12 -8 0 -12 -4 -9 -9z"/>
<path d="M566 5058 c3 -5 10 -6 15 -3 13 9 11 12 -6 12 -8 0 -12 -4 -9 -9z"/>
<path d="M9656 4982 c-3 -5 1 -9 9 -9 8 0 12 4 9 9 -3 4 -7 8 -9 8 -2 0 -6 -4
-9 -8z"/>
<path d="M9635 4940 c3 -5 8 -10 11 -10 2 0 4 5 4 10 0 6 -5 10 -11 10 -5 0
-7 -4 -4 -10z"/>
<path d="M580 4920 c-8 -5 -10 -10 -5 -10 6 0 17 5 25 10 8 5 11 10 5 10 -5 0
-17 -5 -25 -10z"/>
<path d="M9639 4873 c-13 -16 -12 -17 4 -4 16 13 21 21 13 21 -2 0 -10 -8 -17
-17z"/>
<path d="M610 4861 c0 -6 4 -13 10 -16 6 -3 7 1 4 9 -7 18 -14 21 -14 7z"/>
<path d="M615 4580 c3 -5 8 -10 11 -10 2 0 4 5 4 10 0 6 -5 10 -11 10 -5 0 -7
-4 -4 -10z"/>
<path d="M9595 4579 c-3 -4 2 -6 10 -5 21 3 28 13 10 13 -9 0 -18 -4 -20 -8z"/>
<path d="M9600 4540 c-12 -7 -10 -9 7 -7 12 0 19 5 17 9 -6 10 -6 10 -24 -2z"/>
<path d="M9606 4498 c3 -5 10 -6 15 -3 13 9 11 12 -6 12 -8 0 -12 -4 -9 -9z"/>
<path d="M636 4482 c-3 -5 1 -9 9 -9 8 0 12 4 9 9 -3 4 -7 8 -9 8 -2 0 -6 -4
-9 -8z"/>
<path d="M606 4418 c3 -5 10 -6 15 -3 13 9 11 12 -6 12 -8 0 -12 -4 -9 -9z"/>
<path d="M659 4353 c-13 -16 -12 -17 4 -4 9 7 17 15 17 17 0 8 -8 3 -21 -13z"/>
<path d="M9553 4191 c0 -11 5 -18 9 -15 4 3 5 11 1 19 -7 21 -12 19 -10 -4z"/>
<path d="M9556 4113 c-6 -14 -5 -15 5 -6 7 7 10 15 7 18 -3 3 -9 -2 -12 -12z"/>
<path d="M9516 4101 c-3 -5 2 -15 12 -22 15 -12 16 -12 5 2 -7 9 -10 19 -6 22
3 4 4 7 0 7 -3 0 -8 -4 -11 -9z"/>
<path d="M9513 4055 c0 -8 4 -12 9 -9 5 3 6 10 3 15 -9 13 -12 11 -12 -6z"/>
<path d="M704 4042 c4 -3 14 -7 22 -8 9 -1 13 0 10 4 -4 3 -14 7 -22 8 -9 1
-13 0 -10 -4z"/>
<path d="M9505 4020 c-3 -6 1 -7 9 -4 18 7 21 14 7 14 -6 0 -13 -4 -16 -10z"/>
<path d="M710 3986 c0 -2 7 -7 16 -10 8 -3 12 -2 9 4 -6 10 -25 14 -25 6z"/>
<path d="M9476 3922 c-3 -5 1 -9 9 -9 8 0 12 4 9 9 -3 4 -7 8 -9 8 -2 0 -6 -4
-9 -8z"/>
<path d="M735 3899 c-3 -4 2 -6 10 -5 21 3 28 13 10 13 -9 0 -18 -4 -20 -8z"/>
<path d="M9454 3858 c-4 -7 -4 -10 1 -6 4 4 15 2 24 -5 14 -11 14 -10 2 6 -16
20 -18 21 -27 5z"/>
<path d="M707 3819 c7 -7 15 -10 18 -7 3 3 -2 9 -12 12 -14 6 -15 5 -6 -5z"/>
<path d="M9466 3822 c-3 -5 1 -9 9 -9 8 0 15 4 15 9 0 4 -4 8 -9 8 -6 0 -12
-4 -15 -8z"/>
<path d="M756 3787 c3 -10 9 -15 12 -12 3 3 0 11 -7 18 -10 9 -11 8 -5 -6z"/>
<path d="M793 3785 c0 -8 4 -15 9 -15 4 0 8 4 8 9 0 6 -4 12 -8 15 -5 3 -9 -1
-9 -9z"/>
<path d="M9430 3760 c0 -5 5 -10 11 -10 5 0 7 5 4 10 -3 6 -8 10 -11 10 -2 0
-4 -4 -4 -10z"/>
<path d="M827 3667 c-3 -8 1 -14 8 -14 7 0 11 6 8 14 -3 7 -6 13 -8 13 -2 0
-5 -6 -8 -13z"/>
<path d="M9396 3661 c-3 -5 2 -15 12 -22 15 -12 16 -12 5 2 -7 9 -10 19 -6 22
3 4 4 7 0 7 -3 0 -8 -4 -11 -9z"/>
<path d="M9380 3586 c0 -2 8 -10 18 -17 15 -13 16 -12 3 4 -13 16 -21 21 -21
13z"/>
<path d="M9351 3533 c-1 -17 16 -25 25 -12 4 7 3 9 -4 5 -5 -3 -13 0 -15 6 -4
9 -6 10 -6 1z"/>
<path d="M856 3462 c-3 -5 1 -9 9 -9 8 0 12 4 9 9 -3 4 -7 8 -9 8 -2 0 -6 -4
-9 -8z"/>
<path d="M889 3443 c-13 -16 -12 -17 4 -4 9 7 17 15 17 17 0 8 -8 3 -21 -13z"/>
<path d="M913 3415 c0 -8 4 -12 9 -9 5 3 6 10 3 15 -9 13 -12 11 -12 -6z"/>
<path d="M9319 3395 c-1 -3 -2 -10 -3 -15 0 -6 -8 -15 -16 -20 -9 -6 -10 -10
-3 -10 13 0 26 17 29 38 2 11 -5 18 -7 7z"/>
<path d="M920 3375 c-7 -9 -11 -17 -9 -20 3 -2 10 5 17 15 14 24 10 26 -8 5z"/>
<path d="M961 3276 c-9 -11 -9 -16 1 -22 7 -4 10 -4 6 1 -4 4 -3 14 3 22 6 7
9 13 6 13 -2 0 -10 -6 -16 -14z"/>
<path d="M9262 3244 c10 -10 20 -16 22 -13 3 3 -5 11 -17 18 -21 13 -21 12 -5
-5z"/>
<path d="M990 3236 c0 -2 8 -10 18 -17 15 -13 16 -12 3 4 -13 16 -21 21 -21
13z"/>
<path d="M989 3163 c-13 -16 -12 -17 4 -4 9 7 17 15 17 17 0 8 -8 3 -21 -13z"/>
<path d="M9194 3158 c-4 -7 -4 -10 1 -6 4 4 15 2 24 -5 14 -11 14 -10 2 6 -16
20 -18 21 -27 5z"/>
<path d="M990 3121 c0 -6 4 -13 10 -16 6 -3 7 1 4 9 -7 18 -14 21 -14 7z"/>
<path d="M1056 3097 c3 -10 9 -15 12 -12 3 3 0 11 -7 18 -10 9 -11 8 -5 -6z"/>
<path d="M1015 3080 c-3 -5 -1 -10 4 -10 6 0 11 5 11 10 0 6 -2 10 -4 10 -3 0
-8 -4 -11 -10z"/>
<path d="M1075 3000 c-3 -5 -1 -10 4 -10 6 0 11 5 11 10 0 6 -2 10 -4 10 -3 0
-8 -4 -11 -10z"/>
<path d="M1110 2981 c0 -6 4 -13 10 -16 6 -3 7 1 4 9 -7 18 -14 21 -14 7z"/>
<path d="M9146 2982 c-3 -5 1 -9 9 -9 8 0 12 4 9 9 -3 4 -7 8 -9 8 -2 0 -6 -4
-9 -8z"/>
<path d="M1095 2940 c3 -5 8 -10 11 -10 2 0 4 5 4 10 0 6 -5 10 -11 10 -5 0
-7 -4 -4 -10z"/>
<path d="M1126 2942 c-3 -5 1 -9 9 -9 8 0 12 4 9 9 -3 4 -7 8 -9 8 -2 0 -6 -4
-9 -8z"/>
<path d="M9070 2897 c0 -2 6 -10 14 -16 11 -9 16 -9 22 1 4 7 4 10 -1 6 -4 -4
-14 -3 -22 3 -7 6 -13 9 -13 6z"/>
<path d="M9030 2799 c0 -5 5 -7 10 -4 6 3 10 8 10 11 0 2 -4 4 -10 4 -5 0 -10
-5 -10 -11z"/>
<path d="M9011 2764 c0 -11 3 -14 6 -6 3 7 2 16 -1 19 -3 4 -6 -2 -5 -13z"/>
<path d="M1195 2760 c-3 -5 -1 -10 4 -10 6 0 11 5 11 10 0 6 -2 10 -4 10 -3 0
-8 -4 -11 -10z"/>
<path d="M1292 2680 c0 -14 2 -19 5 -12 2 6 2 18 0 25 -3 6 -5 1 -5 -13z"/>
<path d="M1293 2634 c0 -10 4 -11 10 -5 7 7 15 5 24 -7 13 -16 14 -15 5 2 -12
23 -39 30 -39 10z"/>
<path d="M9030 2601 c0 -6 4 -13 10 -16 6 -3 7 1 4 9 -7 18 -14 21 -14 7z"/>
<path d="M8870 2586 c0 -2 7 -7 16 -10 8 -3 12 -2 9 4 -6 10 -25 14 -25 6z"/>
<path d="M1329 2563 c-13 -16 -12 -17 4 -4 9 7 17 15 17 17 0 8 -8 3 -21 -13z"/>
<path d="M8890 2539 c0 -5 5 -7 10 -4 6 3 10 8 10 11 0 2 -4 4 -10 4 -5 0 -10
-5 -10 -11z"/>
<path d="M8811 2484 c0 -11 3 -14 6 -6 3 7 2 16 -1 19 -3 4 -6 -2 -5 -13z"/>
<path d="M1415 2470 c-3 -6 1 -7 9 -4 18 7 21 14 7 14 -6 0 -13 -4 -16 -10z"/>
<path d="M1436 2451 c-3 -5 1 -11 9 -14 9 -4 12 -1 8 9 -6 16 -10 17 -17 5z"/>
<path d="M8822 2444 c10 -10 20 -16 22 -13 3 3 -5 11 -17 18 -21 13 -21 12 -5
-5z"/>
<path d="M8771 2411 c-8 -5 -9 -11 -3 -15 5 -3 12 1 16 9 6 17 6 18 -13 6z"/>
<path d="M1459 2368 c-5 -18 -6 -38 -1 -34 7 8 12 36 6 36 -2 0 -4 -1 -5 -2z"/>
<path d="M1487 2359 c7 -7 15 -10 18 -7 3 3 -2 9 -12 12 -14 6 -15 5 -6 -5z"/>
<path d="M8735 2359 c-11 -16 -1 -19 13 -3 7 8 8 14 3 14 -5 0 -13 -5 -16 -11z"/>
<path d="M1520 2335 c-7 -8 -17 -12 -23 -8 -6 3 -7 1 -3 -5 8 -14 33 -5 40 14
7 18 2 18 -14 -1z"/>
<path d="M8726 2298 c3 -5 10 -6 15 -3 13 9 11 12 -6 12 -8 0 -12 -4 -9 -9z"/>
<path d="M1564 2242 c4 -3 14 -7 22 -8 9 -1 13 0 10 4 -4 3 -14 7 -22 8 -9 1
-13 0 -10 -4z"/>
<path d="M1632 2187 c-8 -10 -6 -13 7 -13 11 0 17 6 14 13 -3 7 -6 13 -8 13
-1 0 -7 -6 -13 -13z"/>
<path d="M8586 2158 c3 -5 10 -6 15 -3 13 9 11 12 -6 12 -8 0 -12 -4 -9 -9z"/>
<path d="M8550 2140 c0 -5 5 -10 10 -10 6 0 10 5 10 10 0 6 -4 10 -10 10 -5 0
-10 -4 -10 -10z"/>
<path d="M1673 2125 c0 -8 4 -15 9 -15 4 0 8 4 8 9 0 6 -4 12 -8 15 -5 3 -9
-1 -9 -9z"/>
<path d="M8581 2116 c-9 -11 -9 -16 1 -22 7 -4 10 -4 6 1 -4 4 -3 14 3 22 6 7
9 13 6 13 -2 0 -10 -6 -16 -14z"/>
<path d="M1725 2080 c21 -24 26 -25 19 -6 -3 8 -13 17 -22 21 -13 5 -13 2 3
-15z"/>
<path d="M1719 2033 c-13 -16 -12 -17 4 -4 14 11 21 11 29 3 7 -7 16 -12 22
-12 10 0 -24 29 -35 30 -4 0 -13 -8 -20 -17z"/>
<path d="M8476 2042 c-3 -5 1 -9 9 -9 8 0 12 4 9 9 -3 4 -7 8 -9 8 -2 0 -6 -4
-9 -8z"/>
<path d="M1796 1982 c-2 -4 -1 -14 4 -22 7 -11 9 -9 7 8 -1 24 -3 26 -11 14z"/>
<path d="M8376 1962 c-3 -4 4 -9 15 -9 23 -2 25 3 4 10 -8 4 -16 3 -19 -1z"/>
<path d="M1793 1925 c0 -8 4 -12 9 -9 5 3 6 10 3 15 -9 13 -12 11 -12 -6z"/>
<path d="M8350 1930 c-9 -6 -10 -10 -3 -10 6 0 15 5 18 10 8 12 4 12 -15 0z"/>
<path d="M1876 1922 c-3 -5 1 -9 9 -9 8 0 12 4 9 9 -3 4 -7 8 -9 8 -2 0 -6 -4
-9 -8z"/>
<path d="M1815 1901 c-3 -5 -2 -12 3 -15 5 -3 9 1 9 9 0 17 -3 19 -12 6z"/>
<path d="M8416 1898 c3 -5 10 -6 15 -3 13 9 11 12 -6 12 -8 0 -12 -4 -9 -9z"/>
<path d="M1855 1880 c3 -5 8 -10 11 -10 2 0 4 5 4 10 0 6 -5 10 -11 10 -5 0
-7 -4 -4 -10z"/>
<path d="M8307 1877 c2 -4 16 -5 30 -3 38 7 38 14 -1 12 -19 0 -32 -4 -29 -9z"/>
<path d="M1913 1867 c0 -8 6 -14 13 -14 7 0 10 6 7 14 -3 7 -8 13 -12 13 -4 0
-8 -6 -8 -13z"/>
<path d="M8279 1848 c-6 -20 -6 -39 0 -42 4 -3 7 6 7 20 0 20 -4 32 -7 22z"/>
<path d="M8330 1839 c0 -5 5 -7 10 -4 6 3 10 8 10 11 0 2 -4 4 -10 4 -5 0 -10
-5 -10 -11z"/>
<path d="M1954 1814 c1 -7 6 -17 10 -21 4 -4 6 -1 4 7 -2 9 3 14 12 12 8 -2
11 0 7 4 -13 14 -35 12 -33 -2z"/>
<path d="M1993 1770 c-1 -11 2 -20 7 -20 4 0 7 7 6 15 -3 23 -12 26 -13 5z"/>
<path d="M8235 1769 c-4 -6 -5 -12 -2 -15 2 -3 7 2 10 11 7 17 1 20 -8 4z"/>
<path d="M8161 1732 c-7 -14 -6 -19 4 -19 7 0 11 7 7 15 -4 11 -1 13 8 7 9 -5
11 -4 6 3 -10 16 -14 15 -25 -6z"/>
<path d="M2032 1725 c3 -3 16 -8 28 -10 12 -2 20 -1 16 2 -4 4 -16 8 -28 10
-12 2 -19 1 -16 -2z"/>
<path d="M2137 1676 c-4 -10 -1 -13 8 -9 8 3 12 9 9 14 -7 12 -11 11 -17 -5z"/>
<path d="M8037 1638 c-7 -5 0 -6 17 -4 16 3 31 7 33 10 8 8 -37 2 -50 -6z"/>
<path d="M2186 1623 c-6 -14 -5 -15 5 -6 7 7 10 15 7 18 -3 3 -9 -2 -12 -12z"/>
<path d="M2135 1620 c3 -5 8 -10 11 -10 2 0 4 5 4 10 0 6 -5 10 -11 10 -5 0
-7 -4 -4 -10z"/>
<path d="M8010 1606 c0 -8 4 -17 9 -20 5 -4 7 3 4 14 -6 23 -13 26 -13 6z"/>
<path d="M2199 1593 c-12 -16 -12 -17 2 -6 9 7 19 10 22 6 4 -3 7 -1 7 5 0 17
-16 15 -31 -5z"/>
<path d="M2238 1588 c-7 -17 15 -19 29 -3 4 4 3 5 -4 2 -6 -4 -13 -2 -15 5 -3
8 -6 6 -10 -4z"/>
<path d="M7970 1571 c0 -7 -5 -9 -12 -5 -7 5 -8 3 -3 -5 5 -9 10 -10 18 -2 6
6 8 14 4 18 -4 3 -7 1 -7 -6z"/>
<path d="M2333 1503 c4 -3 1 -13 -6 -22 -11 -14 -10 -14 5 -2 16 12 16 31 1
31 -4 0 -3 -3 0 -7z"/>
<path d="M2376 1473 c-6 -14 -5 -15 5 -6 7 7 10 15 7 18 -3 3 -9 -2 -12 -12z"/>
<path d="M2336 1439 c4 -8 30 -6 38 2 3 3 -5 5 -19 5 -13 0 -22 -3 -19 -7z"/>
<path d="M2390 1438 c0 -6 6 -8 14 -5 8 3 17 2 20 -4 2 -5 3 -4 2 2 -3 15 -36
21 -36 7z"/>
<path d="M7850 1419 c0 -5 5 -7 10 -4 6 3 10 8 10 11 0 2 -4 4 -10 4 -5 0 -10
-5 -10 -11z"/>
<path d="M2439 1393 c-12 -16 -12 -17 2 -6 9 7 20 9 24 5 5 -4 5 -1 1 6 -9 16
-11 15 -27 -5z"/>
<path d="M7755 1393 c1 -10 -5 -27 -14 -38 -16 -19 -15 -20 4 -3 21 17 31 58
15 58 -4 0 -7 -8 -5 -17z"/>
<path d="M7786 1382 c-3 -5 1 -9 9 -9 8 0 12 4 9 9 -3 4 -7 8 -9 8 -2 0 -6 -4
-9 -8z"/>
<path d="M2470 1359 c0 -5 5 -7 10 -4 6 3 10 8 10 11 0 2 -4 4 -10 4 -5 0 -10
-5 -10 -11z"/>
<path d="M7643 1335 c-3 -9 -3 -18 -1 -21 3 -3 8 4 11 16 6 23 -1 27 -10 5z"/>
<path d="M7766 1338 c3 -5 10 -6 15 -3 13 9 11 12 -6 12 -8 0 -12 -4 -9 -9z"/>
<path d="M7679 1313 l-24 -28 28 24 c15 14 27 26 27 28 0 8 -8 1 -31 -24z"/>
<path d="M2556 1322 c-3 -5 1 -9 9 -9 8 0 12 4 9 9 -3 4 -7 8 -9 8 -2 0 -6 -4
-9 -8z"/>
<path d="M2586 1305 c-11 -8 -15 -15 -9 -15 6 0 16 7 23 15 16 19 11 19 -14 0z"/>
<path d="M2620 1306 c0 -2 9 -6 20 -9 11 -3 18 -1 14 4 -5 9 -34 13 -34 5z"/>
<path d="M7610 1290 c-11 -7 -11 -10 -2 -10 8 0 10 -5 6 -12 -4 -7 -3 -9 1 -5
7 6 17 37 12 37 -1 0 -9 -5 -17 -10z"/>
<path d="M2570 1266 c0 -2 7 -7 16 -10 8 -3 12 -2 9 4 -6 10 -25 14 -25 6z"/>
<path d="M7530 1260 c-9 -6 -10 -10 -3 -10 6 0 15 5 18 10 8 12 4 12 -15 0z"/>
<path d="M7575 1250 c-4 -6 -10 -8 -14 -6 -4 3 -8 -1 -8 -9 0 -13 4 -12 19 2
18 16 22 23 14 23 -3 0 -8 -5 -11 -10z"/>
<path d="M2665 1240 c-3 -6 1 -7 9 -4 18 7 21 14 7 14 -6 0 -13 -4 -16 -10z"/>
<path d="M7640 1235 c-7 -8 -17 -12 -23 -8 -6 4 -7 1 -3 -6 6 -9 13 -8 27 5
10 9 19 19 19 21 0 7 -8 2 -20 -12z"/>
<path d="M7477 1219 c7 -7 15 -10 18 -7 3 3 -2 9 -12 12 -14 6 -15 5 -6 -5z"/>
<path d="M7520 1220 c-9 -6 -10 -10 -3 -10 6 0 15 5 18 10 8 12 4 12 -15 0z"/>
<path d="M2759 1208 c-7 -23 -4 -39 7 -49 8 -6 11 -16 7 -22 -4 -6 -1 -7 6 -3
9 6 9 12 -2 24 -8 10 -13 25 -12 35 3 13 -2 26 -6 15z"/>
<path d="M7450 1202 c0 -5 7 -9 15 -9 8 0 12 4 9 9 -3 4 -9 8 -15 8 -5 0 -9
-4 -9 -8z"/>
<path d="M2715 1191 c-3 -5 -2 -12 3 -15 5 -3 9 1 9 9 0 17 -3 19 -12 6z"/>
<path d="M7430 1189 c0 -5 -6 -7 -12 -3 -7 4 -9 3 -5 -1 13 -15 36 -14 30 1
-6 17 -13 18 -13 3z"/>
<path d="M2830 1183 c0 -6 8 -17 18 -24 16 -13 16 -13 2 6 -8 11 -16 22 -17
24 -2 2 -3 0 -3 -6z"/>
<path d="M7380 1162 c0 -4 9 -8 19 -8 11 0 17 4 15 8 -3 4 -12 8 -20 8 -8 0
-14 -4 -14 -8z"/>
<path d="M7353 1145 c0 -8 4 -15 9 -15 4 0 8 4 8 9 0 6 -4 12 -8 15 -5 3 -9
-1 -9 -9z"/>
<path d="M2914 1132 c4 -7 2 -20 -6 -30 -12 -16 -11 -16 7 -2 11 8 21 15 23
16 1 1 -5 7 -15 15 -12 10 -15 10 -9 1z"/>
<path d="M7320 1122 c0 -5 7 -9 15 -9 8 0 12 4 9 9 -3 4 -9 8 -15 8 -5 0 -9
-4 -9 -8z"/>
<path d="M2815 1100 c-3 -5 -1 -10 4 -10 6 0 11 5 11 10 0 6 -2 10 -4 10 -3 0
-8 -4 -11 -10z"/>
<path d="M2953 1095 c0 -8 4 -12 9 -9 4 3 8 9 8 15 0 5 -4 9 -8 9 -5 0 -9 -7
-9 -15z"/>
<path d="M7250 1086 c0 -8 4 -17 9 -20 5 -4 7 3 4 14 -6 23 -13 26 -13 6z"/>
<path d="M7396 1087 c3 -10 9 -15 12 -12 3 3 0 11 -7 18 -10 9 -11 8 -5 -6z"/>
<path d="M2980 1079 c0 -5 5 -7 10 -4 6 3 10 8 10 11 0 2 -4 4 -10 4 -5 0 -10
-5 -10 -11z"/>
<path d="M7190 1059 c0 -5 5 -7 10 -4 6 3 10 8 10 11 0 2 -4 4 -10 4 -5 0 -10
-5 -10 -11z"/>
<path d="M7320 1060 c-8 -5 -10 -10 -5 -10 6 0 17 5 25 10 8 5 11 10 5 10 -5
0 -17 -5 -25 -10z"/>
<path d="M2960 1046 c0 -2 8 -10 18 -17 15 -13 16 -12 3 4 -13 16 -21 21 -21
13z"/>
<path d="M3030 1036 c0 -2 9 -6 20 -9 11 -3 18 -1 14 4 -5 9 -34 13 -34 5z"/>
<path d="M7150 1025 c0 -5 5 -17 10 -25 5 -8 10 -10 10 -5 0 6 -5 17 -10 25
-5 8 -10 11 -10 5z"/>
<path d="M7190 1001 c0 -6 4 -13 10 -16 6 -3 7 1 4 9 -7 18 -14 21 -14 7z"/>
<path d="M3187 986 c-4 -10 1 -12 14 -9 23 6 24 9 5 16 -8 3 -17 0 -19 -7z"/>
<path d="M7040 986 c0 -2 7 -7 16 -10 8 -3 12 -2 9 4 -6 10 -25 14 -25 6z"/>
<path d="M3076 967 c3 -10 9 -15 12 -12 3 3 0 11 -7 18 -10 9 -11 8 -5 -6z"/>
<path d="M3233 964 c0 -7 4 -11 8 -8 4 2 10 -2 12 -8 4 -8 6 -7 6 3 1 9 -5 19
-12 22 -8 3 -14 -1 -14 -9z"/>
<path d="M3113 953 c0 -9 4 -10 14 -2 7 6 13 12 13 14 0 1 -6 2 -13 2 -8 0
-14 -6 -14 -14z"/>
<path d="M3150 960 c0 -5 5 -10 10 -10 6 0 10 5 10 10 0 6 -4 10 -10 10 -5 0
-10 -4 -10 -10z"/>
<path d="M7030 962 c0 -5 7 -9 15 -9 8 0 12 4 9 9 -3 4 -9 8 -15 8 -5 0 -9 -4
-9 -8z"/>
<path d="M7130 960 c0 -5 5 -10 11 -10 5 0 7 5 4 10 -3 6 -8 10 -11 10 -2 0
-4 -4 -4 -10z"/>
<path d="M3298 938 c5 -5 16 -8 23 -6 8 3 3 7 -10 11 -17 4 -21 3 -13 -5z"/>
<path d="M6935 941 c-3 -5 0 -13 6 -17 7 -4 9 -3 5 4 -3 6 3 12 16 15 23 4 23
4 1 6 -12 0 -24 -3 -28 -8z"/>
<path d="M3234 926 c1 -8 5 -18 8 -22 4 -3 5 1 4 10 -1 8 -5 18 -8 22 -4 3 -5
-1 -4 -10z"/>
<path d="M6913 902 c1 -22 5 -38 10 -35 7 4 0 63 -8 71 -2 2 -3 -14 -2 -36z"/>
<path d="M7016 927 c3 -10 9 -15 12 -12 3 3 0 11 -7 18 -10 9 -11 8 -5 -6z"/>
<path d="M3347 919 c7 -7 15 -10 18 -7 3 3 -2 9 -12 12 -14 6 -15 5 -6 -5z"/>
<path d="M6856 898 c3 -5 10 -6 15 -3 13 9 11 12 -6 12 -8 0 -12 -4 -9 -9z"/>
<path d="M3386 884 c-9 -8 -16 -18 -16 -22 0 -3 5 -1 12 6 9 9 15 7 25 -6 13
-15 13 -15 4 4 -6 12 -7 24 -4 28 3 3 4 6 0 6 -3 0 -13 -7 -21 -16z"/>
<path d="M6796 874 c-8 -20 -8 -24 2 -24 4 0 8 9 9 20 2 24 -3 26 -11 4z"/>
<path d="M6847 879 c7 -7 15 -10 18 -7 3 3 -2 9 -12 12 -14 6 -15 5 -6 -5z"/>
<path d="M6959 873 c-13 -16 -12 -17 4 -4 9 7 17 15 17 17 0 8 -8 3 -21 -13z"/>
<path d="M3441 861 c-9 -6 -10 -11 -2 -15 6 -4 11 -2 11 4 0 6 5 8 12 4 7 -4
8 -3 4 4 -8 14 -7 14 -25 3z"/>
<path d="M3520 851 c0 -6 4 -13 10 -16 6 -3 7 1 4 9 -7 18 -14 21 -14 7z"/>
<path d="M6684 839 c-3 -6 -1 -16 5 -22 9 -9 10 -7 5 7 -6 15 -4 17 6 11 9 -5
11 -4 6 3 -9 15 -13 15 -22 1z"/>
<path d="M3507 819 c7 -7 15 -10 18 -7 3 3 -2 9 -12 12 -14 6 -15 5 -6 -5z"/>
<path d="M3575 819 c-4 -6 -4 -13 -1 -16 3 -4 6 -1 6 6 0 7 5 9 12 5 7 -4 8
-3 4 4 -9 15 -13 15 -21 1z"/>
<path d="M6752 811 c7 -9 13 -18 15 -20 1 -2 1 5 0 16 0 11 -7 20 -14 20 -10
0 -10 -4 -1 -16z"/>
<path d="M6853 815 c0 -8 4 -12 9 -9 5 3 6 10 3 15 -9 13 -12 11 -12 -6z"/>
<path d="M3645 800 c3 -5 8 -10 11 -10 2 0 4 5 4 10 0 6 -5 10 -11 10 -5 0 -7
-4 -4 -10z"/>
<path d="M6670 801 c0 -6 4 -13 10 -16 6 -3 7 1 4 9 -7 18 -14 21 -14 7z"/>
<path d="M6790 806 c0 -2 7 -7 16 -10 8 -3 12 -2 9 4 -6 10 -25 14 -25 6z"/>
<path d="M3493 785 c0 -8 4 -12 9 -9 5 3 6 10 3 15 -9 13 -12 11 -12 -6z"/>
<path d="M3666 783 c-6 -14 -5 -15 5 -6 7 7 10 15 7 18 -3 3 -9 -2 -12 -12z"/>
<path d="M3535 780 c3 -5 8 -10 11 -10 2 0 4 5 4 10 0 6 -5 10 -11 10 -5 0 -7
-4 -4 -10z"/>
<path d="M3620 780 c-9 -6 -10 -10 -3 -10 6 0 15 5 18 10 8 12 4 12 -15 0z"/>
<path d="M6497 761 c-4 -17 -3 -21 5 -13 5 5 8 16 6 23 -3 8 -7 3 -11 -10z"/>
<path d="M3720 766 c0 -2 7 -9 15 -16 13 -11 14 -10 9 4 -5 14 -24 23 -24 12z"/>
<path d="M6450 760 c0 -5 5 -10 10 -10 6 0 10 5 10 10 0 6 -4 10 -10 10 -5 0
-10 -4 -10 -10z"/>
<path d="M3709 738 c7 -9 9 -23 5 -30 -6 -10 -4 -11 7 0 11 10 10 15 -6 30
-17 15 -18 15 -6 0z"/>
<path d="M3791 743 c3 -20 -2 -27 -11 -13 -6 9 -10 10 -10 3 0 -19 17 -24 29
-9 9 10 9 16 1 21 -6 4 -10 3 -9 -2z"/>
<path d="M6414 739 c-3 -6 -1 -16 5 -22 9 -9 10 -7 5 7 -6 15 -4 17 6 11 9 -5
11 -4 6 3 -9 15 -13 15 -22 1z"/>
<path d="M3820 717 c-11 -19 -11 -20 1 -11 8 6 21 13 28 16 13 4 13 5 0 10 -9
4 -21 -2 -29 -15z"/>
<path d="M6357 717 c-3 -7 3 -13 13 -13 10 0 16 6 13 13 -3 7 -9 13 -13 13 -4
0 -10 -6 -13 -13z"/>
<path d="M3866 703 c-6 -14 -5 -15 5 -6 7 7 10 15 7 18 -3 3 -9 -2 -12 -12z"/>
<path d="M3910 700 c0 -5 5 -10 10 -10 6 0 10 5 10 10 0 6 -4 10 -10 10 -5 0
-10 -4 -10 -10z"/>
<path d="M6250 700 c0 -5 5 -10 11 -10 5 0 7 5 4 10 -3 6 -8 10 -11 10 -2 0
-4 -4 -4 -10z"/>
<path d="M6530 700 c0 -5 5 -10 11 -10 5 0 7 5 4 10 -3 6 -8 10 -11 10 -2 0
-4 -4 -4 -10z"/>
<path d="M3971 687 c2 -1 13 -9 24 -17 19 -14 19 -14 6 3 -7 9 -18 17 -24 17
-6 0 -8 -1 -6 -3z"/>
<path d="M6171 674 c0 -11 3 -14 6 -6 3 7 2 16 -1 19 -3 4 -6 -2 -5 -13z"/>
<path d="M6220 680 c8 -5 20 -10 25 -10 6 0 3 5 -5 10 -8 5 -19 10 -25 10 -5
0 -3 -5 5 -10z"/>
<path d="M6400 680 c-9 -6 -10 -10 -3 -10 6 0 15 5 18 10 8 12 4 12 -15 0z"/>
<path d="M3855 660 c-3 -5 -1 -10 4 -10 6 0 11 5 11 10 0 6 -2 10 -4 10 -3 0
-8 -4 -11 -10z"/>
<path d="M3960 660 c-9 -6 -10 -10 -3 -10 6 0 15 5 18 10 8 12 4 12 -15 0z"/>
<path d="M4056 661 c-3 -5 1 -14 9 -21 8 -7 15 -9 15 -5 0 4 8 1 18 -6 15 -11
15 -11 4 1 -7 8 -18 15 -25 15 -7 1 -11 6 -9 13 2 14 -4 16 -12 3z"/>
<path d="M4080 666 c0 -2 7 -7 16 -10 8 -3 12 -2 9 4 -6 10 -25 14 -25 6z"/>
<path d="M4124 659 c-4 -7 -3 -9 4 -5 5 3 13 0 15 -6 4 -9 6 -10 6 -1 1 17
-16 25 -25 12z"/>
<path d="M6096 661 c-3 -5 2 -15 12 -22 16 -13 16 -13 2 5 -14 18 -13 19 3 13
9 -3 17 -2 17 3 0 12 -27 13 -34 1z"/>
<path d="M6193 653 c0 -9 4 -10 14 -2 7 6 13 12 13 14 0 1 -6 2 -13 2 -8 0
-14 -6 -14 -14z"/>
<path d="M4015 649 c-4 -6 -5 -12 -2 -15 2 -3 7 2 10 11 7 17 1 20 -8 4z"/>
<path d="M6041 637 c-13 -21 -12 -21 5 -5 10 10 16 20 13 22 -3 3 -11 -5 -18
-17z"/>
<path d="M4175 641 c-3 -5 0 -13 6 -17 7 -4 9 -3 5 4 -3 5 0 13 6 15 9 4 10 6
1 6 -6 1 -14 -3 -18 -8z"/>
<path d="M4246 635 c4 -8 8 -15 10 -15 2 0 4 7 4 15 0 8 -4 15 -10 15 -5 0 -7
-7 -4 -15z"/>
<path d="M6005 637 c-15 -12 -16 -15 -4 -22 8 -5 11 -5 7 0 -4 4 0 14 10 21
23 18 11 18 -13 1z"/>
<path d="M4153 608 c1 -15 6 -23 11 -18 4 4 4 16 -2 26 -9 16 -10 14 -9 -8z"/>
<path d="M4273 618 c1 -7 -3 -12 -9 -11 -6 1 -11 -5 -11 -13 0 -12 4 -11 18 2
10 9 16 21 13 25 -8 13 -14 11 -11 -3z"/>
<path d="M4310 620 c-13 -8 -12 -10 3 -10 9 0 17 5 17 10 0 12 -1 12 -20 0z"/>
<path d="M5876 613 c-6 -14 -5 -15 5 -6 7 7 10 15 7 18 -3 3 -9 -2 -12 -12z"/>
<path d="M4215 610 c-4 -6 -11 -8 -16 -5 -5 4 -9 1 -9 -4 0 -16 16 -13 30 4 7
8 10 15 7 15 -3 0 -9 -5 -12 -10z"/>
<path d="M5804 612 c-20 -14 -23 -38 -3 -38 12 0 15 4 9 11 -6 7 -5 16 2 23
13 13 9 16 -8 4z"/>
<path d="M6065 600 c10 -11 20 -20 23 -20 3 0 -3 9 -13 20 -10 11 -20 20 -23
20 -3 0 3 -9 13 -20z"/>
<path d="M4346 598 c3 -5 10 -6 15 -3 13 9 11 12 -6 12 -8 0 -12 -4 -9 -9z"/>
<path d="M4419 599 c-12 -9 -12 -10 1 -6 8 2 23 0 33 -5 9 -5 17 -6 17 -4 0
13 -37 24 -51 15z"/>
<path d="M4482 596 c7 -8 15 -12 17 -11 5 6 -10 25 -20 25 -5 0 -4 -6 3 -14z"/>
<path d="M5919 603 c0 -5 -2 -18 -5 -30 -2 -12 0 -24 4 -27 4 -2 8 11 8 30 1
19 0 34 -2 34 -2 0 -4 -3 -5 -7z"/>
<path d="M4605 580 c-16 -7 -17 -9 -3 -9 9 -1 20 4 23 9 7 11 7 11 -20 0z"/>
<path d="M5655 579 c-4 -6 -5 -12 -2 -15 2 -3 7 2 10 11 7 17 1 20 -8 4z"/>
<path d="M5754 565 c0 -13 3 -22 7 -19 8 4 6 30 -2 38 -3 3 -5 -5 -5 -19z"/>
<path d="M5871 573 c7 -12 15 -20 18 -17 3 2 -3 12 -13 22 -17 16 -18 16 -5
-5z"/>
<path d="M5950 580 c0 -5 5 -10 11 -10 5 0 7 5 4 10 -3 6 -8 10 -11 10 -2 0
-4 -4 -4 -10z"/>
<path d="M5986 578 c3 -5 10 -6 15 -3 13 9 11 12 -6 12 -8 0 -12 -4 -9 -9z"/>
<path d="M4550 570 c0 -5 7 -7 15 -4 8 4 15 8 15 10 0 2 -7 4 -15 4 -8 0 -15
-4 -15 -10z"/>
<path d="M4760 575 c0 -5 5 -17 10 -25 5 -8 10 -10 10 -5 0 6 -5 17 -10 25 -5
8 -10 11 -10 5z"/>
<path d="M5538 563 c-4 -13 0 -19 13 -19 14 0 16 3 6 16 -6 8 -12 16 -13 18
-1 1 -4 -5 -6 -15z"/>
<path d="M5833 565 c0 -8 4 -12 9 -9 5 3 6 10 3 15 -9 13 -12 11 -12 -6z"/>
<path d="M4290 559 c0 -5 5 -7 10 -4 6 3 10 8 10 11 0 2 -4 4 -10 4 -5 0 -10
-5 -10 -11z"/>
<path d="M4476 558 c3 -5 10 -6 15 -3 13 9 11 12 -6 12 -8 0 -12 -4 -9 -9z"/>
<path d="M4651 567 c2 -1 13 -9 24 -17 19 -14 19 -14 6 3 -7 9 -18 17 -24 17
-6 0 -8 -1 -6 -3z"/>
<path d="M4704 558 c-4 -7 -4 -10 1 -6 4 4 17 2 29 -4 19 -10 20 -10 7 5 -16
20 -27 21 -37 5z"/>
<path d="M4850 566 c0 -2 7 -7 16 -10 8 -3 12 -2 9 4 -6 10 -25 14 -25 6z"/>
<path d="M4890 559 c0 -5 5 -7 12 -3 8 5 9 1 4 -12 -5 -14 -4 -16 5 -7 6 6 8
16 5 22 -9 14 -26 14 -26 0z"/>
<path d="M4947 559 c7 -9 10 -19 6 -22 -3 -4 -1 -7 5 -7 17 0 15 16 -5 31 -16
12 -17 12 -6 -2z"/>
<path d="M5315 560 c3 -5 8 -10 11 -10 2 0 4 5 4 10 0 6 -5 10 -11 10 -5 0 -7
-4 -4 -10z"/>
<path d="M5588 563 c9 -3 10 -9 3 -17 -8 -9 -6 -13 4 -13 8 0 13 3 10 5 -3 3
-1 10 5 16 6 8 2 12 -13 13 -12 0 -16 -1 -9 -4z"/>
<path d="M5670 560 c0 -5 5 -10 11 -10 5 0 7 5 4 10 -3 6 -8 10 -11 10 -2 0
-4 -4 -4 -10z"/>
<path d="M5146 543 c-6 -14 -5 -15 5 -6 7 7 10 15 7 18 -3 3 -9 -2 -12 -12z"/>
<path d="M5437 547 c-3 -8 1 -14 8 -14 7 0 11 6 8 14 -3 7 -6 13 -8 13 -2 0
-5 -6 -8 -13z"/>
<path d="M4415 540 c3 -5 8 -10 11 -10 2 0 4 5 4 10 0 6 -5 10 -11 10 -5 0 -7
-4 -4 -10z"/>
<path d="M4827 533 c4 -9 9 -10 18 -3 6 5 15 8 18 5 4 -3 5 -2 2 2 -10 13 -43
10 -38 -4z"/>
<path d="M5040 546 c0 -2 7 -7 16 -10 8 -3 12 -2 9 4 -6 10 -25 14 -25 6z"/>
<path d="M5100 546 c0 -2 7 -7 16 -10 8 -3 12 -2 9 4 -6 10 -25 14 -25 6z"/>
<path d="M5175 543 c3 -3 0 -11 -5 -18 -7 -8 -5 -12 4 -12 14 0 16 22 3 32 -4
3 -5 2 -2 -2z"/>
<path d="M5480 540 c-9 -6 -10 -10 -3 -10 6 0 15 5 18 10 8 12 4 12 -15 0z"/>
<path d="M4615 531 c-3 -5 -2 -12 3 -15 5 -3 9 1 9 9 0 17 -3 19 -12 6z"/>
<path d="M5676 527 c3 -10 9 -15 12 -12 3 3 0 11 -7 18 -10 9 -11 8 -5 -6z"/>
<path d="M4120 520 c-9 -6 -10 -10 -3 -10 6 0 15 5 18 10 8 12 4 12 -15 0z"/>
<path d="M4290 521 c0 -6 4 -13 10 -16 6 -3 7 1 4 9 -7 18 -14 21 -14 7z"/>
<path d="M4675 520 c3 -5 8 -10 11 -10 2 0 4 5 4 10 0 6 -5 10 -11 10 -5 0 -7
-4 -4 -10z"/>
<path d="M4813 511 c0 -11 5 -18 9 -15 4 3 5 11 1 19 -7 21 -12 19 -10 -4z"/>
<path d="M5016 521 c3 -3 13 -6 22 -6 9 0 16 -6 14 -13 -1 -8 2 -11 8 -7 16
10 -7 34 -30 32 -11 -1 -17 -4 -14 -6z"/>
<path d="M5093 515 c0 -8 4 -12 9 -9 4 3 8 9 8 15 0 5 -4 9 -8 9 -5 0 -9 -7
-9 -15z"/>
<path d="M5239 513 c-12 -16 -12 -17 2 -6 9 7 19 10 22 6 4 -3 7 -1 7 5 0 17
-16 15 -31 -5z"/>
<path d="M5147 499 c7 -7 15 -10 18 -7 3 3 -2 9 -12 12 -14 6 -15 5 -6 -5z"/>
<path d="M5615 500 c-3 -5 -1 -10 4 -10 6 0 11 5 11 10 0 6 -2 10 -4 10 -3 0
-8 -4 -11 -10z"/>
<path d="M5193 485 c0 -8 4 -12 9 -9 5 3 6 10 3 15 -9 13 -12 11 -12 -6z"/>
<path d="M4866 438 c3 -5 10 -6 15 -3 13 9 11 12 -6 12 -8 0 -12 -4 -9 -9z"/>
<path d="M4985 440 c-3 -6 1 -7 9 -4 18 7 21 14 7 14 -6 0 -13 -4 -16 -10z"/>
</g>
</svg>
