<?xml version="1.0" standalone="no"?>
<!DOCTYPE svg PUBLIC "-//W3C//DTD SVG 20010904//EN"
 "http://www.w3.org/TR/2001/REC-SVG-20010904/DTD/svg10.dtd">
<svg version="1.0" xmlns="http://www.w3.org/2000/svg"
 width="1024.000000pt" height="1024.000000pt" viewBox="0 0 1024.000000 1024.000000"
 preserveAspectRatio="xMidYMid meet">
<metadata>
Created by potrace 1.14, written by Peter Selinger 2001-2017
</metadata>
<g transform="translate(0.000000,1024.000000) scale(0.100000,-0.100000)"
fill="#000000" stroke="none">
<path d="M4796 9562 c-3 -5 1 -9 9 -9 8 0 12 4 9 9 -3 4 -7 8 -9 8 -2 0 -6 -4
-9 -8z"/>
<path d="M5060 9564 c0 -7 -29 -12 -82 -13 -121 -2 -322 -18 -352 -27 -14 -5
-16 -3 -10 7 7 12 5 12 -9 1 -9 -8 -20 -11 -26 -8 -5 3 -12 0 -14 -6 -4 -10
-6 -10 -6 0 -1 10 -6 10 -21 2 -15 -8 -20 -8 -20 2 0 9 -2 10 -8 2 -4 -7 -25
-14 -47 -17 -22 -3 -48 -9 -58 -12 -11 -5 -17 -2 -17 6 0 9 -3 10 -8 3 -11
-16 -45 -27 -36 -11 6 9 5 9 -7 0 -9 -7 -31 -15 -50 -18 -38 -5 -72 -12 -97
-19 -9 -3 -33 -7 -53 -10 -20 -3 -49 -10 -64 -16 -15 -6 -30 -8 -33 -5 -3 2
-11 0 -19 -6 -10 -9 -13 -8 -13 2 0 9 -3 10 -8 4 -11 -16 -55 -32 -84 -31 -14
1 -24 -3 -21 -8 4 -5 -1 -7 -9 -3 -9 3 -20 1 -24 -3 -5 -5 -18 -11 -29 -13
-11 -2 -33 -9 -49 -16 -16 -6 -36 -13 -45 -14 -9 -1 -22 -6 -28 -10 -7 -5 -17
-6 -22 -3 -5 4 -11 3 -13 -1 -4 -11 -128 -56 -155 -57 -11 -1 -19 -4 -16 -8 2
-5 -5 -8 -16 -8 -10 0 -21 -5 -23 -11 -2 -7 -18 -12 -35 -13 -17 0 -29 -4 -26
-8 2 -5 -3 -8 -11 -8 -8 0 -31 -9 -50 -21 -20 -11 -41 -22 -48 -23 -7 -2 -34
-13 -61 -25 -26 -12 -52 -19 -59 -15 -6 4 -8 3 -4 -4 4 -7 -31 -29 -91 -59
-54 -26 -118 -60 -143 -75 -24 -16 -51 -26 -58 -23 -7 2 -10 0 -7 -5 3 -6 -4
-15 -17 -20 -13 -6 -36 -19 -53 -30 -16 -11 -37 -23 -45 -27 -8 -4 -20 -13
-25 -20 -6 -8 -20 -15 -32 -16 -12 0 -20 -3 -18 -6 5 -5 -26 -30 -38 -31 -5 0
-5 5 -1 12 4 7 3 8 -5 4 -6 -4 -9 -11 -6 -16 7 -11 -43 -42 -56 -35 -5 4 -8 2
-7 -3 3 -10 -114 -102 -130 -102 -5 0 -13 -7 -16 -16 -4 -9 -9 -15 -12 -12 -2
3 -19 -8 -35 -23 -17 -16 -35 -26 -40 -23 -5 3 -8 1 -7 -3 2 -5 -24 -31 -57
-58 -33 -27 -63 -53 -67 -59 -4 -6 -13 -5 -25 5 -17 13 -17 13 -4 -4 8 -9 12
-19 10 -20 -2 -1 -29 -24 -60 -49 -31 -26 -59 -45 -63 -43 -3 3 -4 2 -1 -2 2
-3 -17 -28 -44 -54 -35 -34 -55 -47 -70 -44 -12 2 -19 0 -16 -6 4 -5 11 -7 16
-4 22 14 6 -14 -25 -44 -21 -21 -39 -30 -47 -26 -8 5 -10 4 -5 -3 8 -13 -33
-64 -46 -56 -5 3 -7 2 -6 -3 3 -8 -75 -107 -117 -148 -12 -11 -40 -46 -63 -78
-27 -36 -48 -55 -55 -51 -7 4 -9 4 -5 -1 11 -11 -11 -47 -24 -39 -6 4 -8 3 -5
-3 4 -6 -1 -20 -11 -31 -39 -47 -48 -57 -52 -67 -3 -5 -9 -9 -13 -7 -5 1 -6
-2 -2 -8 3 -5 -5 -21 -19 -35 -14 -14 -25 -26 -25 -28 2 -13 -17 -37 -27 -33
-8 3 -11 0 -8 -9 6 -14 -43 -95 -57 -95 -5 0 -6 -6 -3 -13 4 -12 -20 -42 -35
-42 -3 0 -5 -3 -3 -8 4 -14 -51 -106 -61 -100 -6 4 -7 1 -3 -6 5 -7 1 -20 -7
-29 -8 -9 -18 -27 -21 -39 -4 -13 -14 -23 -22 -23 -8 0 -13 -4 -10 -9 9 -14
-5 -42 -17 -34 -5 3 -7 1 -4 -4 9 -14 -117 -266 -127 -256 -4 4 -4 0 -1 -8 3
-9 -6 -40 -21 -70 -15 -30 -27 -56 -27 -59 1 -3 -3 -11 -9 -17 -6 -7 -8 -13
-4 -13 4 0 -1 -15 -11 -32 -9 -18 -18 -42 -20 -53 -2 -10 -7 -22 -11 -25 -4
-3 -8 -13 -10 -24 -2 -10 -8 -30 -14 -45 -6 -14 -11 -29 -10 -33 1 -5 -2 -8
-6 -8 -4 0 -9 -12 -10 -26 -1 -15 -6 -32 -10 -38 -11 -14 -36 -98 -33 -110 1
-4 -7 -24 -19 -43 -11 -19 -15 -31 -9 -27 8 4 8 1 1 -12 -6 -11 -11 -23 -11
-29 -4 -27 -23 -92 -32 -109 -7 -13 -7 -16 0 -11 8 4 8 -1 2 -17 -14 -34 -25
-81 -22 -97 2 -9 -3 -12 -15 -7 -13 5 -15 4 -5 -7 13 -17 9 -62 -7 -62 -6 0
-14 -4 -19 -9 -5 -5 -3 -6 5 -2 7 4 15 0 19 -10 4 -10 2 -19 -4 -21 -6 -2 -9
-13 -6 -23 3 -13 0 -20 -8 -20 -12 0 -12 -2 -1 -9 11 -7 11 -11 -2 -24 -12
-11 -13 -17 -3 -20 9 -3 9 -7 0 -17 -6 -7 -9 -19 -6 -27 3 -8 0 -19 -8 -24
-11 -7 -11 -9 -1 -9 8 0 10 -5 6 -12 -4 -6 -9 -34 -11 -62 -6 -76 -10 -91 -24
-88 -9 2 -10 0 -2 -10 6 -7 11 -25 11 -40 0 -20 -4 -25 -17 -21 -11 4 -10 1 4
-10 11 -9 15 -17 10 -17 -7 0 -9 -15 -7 -37 4 -30 2 -35 -11 -30 -9 3 -19 2
-22 -4 -4 -5 -3 -9 2 -8 4 1 14 1 22 0 11 -1 11 -4 0 -18 -8 -9 -9 -14 -3 -10
6 3 11 -1 11 -9 0 -8 -6 -13 -13 -10 -8 3 -16 0 -20 -6 -4 -6 -3 -8 3 -5 12 8
36 -17 26 -26 -3 -4 -7 -46 -8 -94 -1 -64 -5 -87 -14 -85 -7 1 -10 -2 -6 -8 3
-6 10 -8 14 -6 10 7 7 -86 -4 -104 -5 -9 -4 -11 3 -6 7 4 12 2 12 -3 0 -6 -6
-11 -12 -11 -10 0 -10 -2 0 -8 13 -9 11 -59 -3 -82 -5 -9 -4 -11 3 -6 7 4 12
1 12 -8 0 -8 -6 -17 -12 -19 -10 -4 -9 -6 1 -6 11 -1 10 -6 -5 -23 -15 -19
-16 -20 -2 -9 10 7 18 12 19 10 0 -2 2 -32 4 -66 2 -43 -1 -63 -9 -63 -8 0 -8
-2 0 -8 6 -4 14 -34 18 -67 4 -33 9 -82 12 -110 3 -27 8 -54 12 -59 3 -5 -1
-6 -9 -1 -12 7 -12 6 -1 -7 7 -8 10 -23 6 -32 -4 -10 -1 -16 7 -16 11 0 11 -3
-1 -10 -8 -5 -10 -10 -4 -10 7 0 14 -15 16 -34 2 -22 0 -32 -7 -28 -6 3 -5 0
1 -9 17 -21 29 -83 15 -75 -6 4 -11 2 -11 -3 0 -6 6 -11 14 -11 9 0 13 -10 12
-30 -1 -16 2 -30 7 -30 5 0 3 -8 -4 -17 -8 -9 -9 -14 -3 -10 7 4 17 -21 28
-68 10 -41 18 -77 17 -80 0 -2 4 -18 9 -34 5 -19 4 -33 -3 -41 -9 -10 -9 -11
1 -6 17 10 27 -21 12 -39 -11 -13 -10 -14 2 -10 12 5 17 -3 23 -32 4 -21 12
-44 18 -52 10 -12 9 -13 -3 -6 -13 8 -13 7 -1 -8 7 -9 10 -17 5 -17 -4 0 -3
-5 4 -12 9 -9 7 -14 -6 -24 -15 -12 -15 -12 5 -8 25 7 26 -13 3 -42 -14 -18
-14 -18 3 -5 20 15 26 12 32 -15 2 -11 10 -38 19 -61 11 -31 12 -43 3 -47 -7
-2 -5 -5 4 -5 9 -1 20 -8 23 -17 3 -8 2 -12 -4 -9 -5 3 3 -16 17 -42 18 -32
23 -48 15 -51 -7 -2 -12 -8 -12 -13 0 -6 4 -7 10 -4 5 3 19 -16 31 -42 12 -26
32 -72 45 -101 15 -32 19 -51 12 -47 -7 4 -5 0 5 -8 14 -11 15 -16 5 -20 -10
-4 -9 -6 2 -7 8 0 22 -16 31 -35 9 -19 12 -32 8 -29 -5 3 -9 0 -9 -5 0 -6 7
-11 16 -11 10 0 14 -6 10 -15 -3 -8 -1 -15 4 -15 13 0 42 -58 35 -69 -2 -5 2
-12 11 -15 8 -3 12 -10 9 -16 -3 -5 -1 -10 4 -10 15 0 14 -27 -1 -34 -7 -3 -4
-4 7 -3 14 1 26 -10 42 -41 13 -24 21 -48 17 -53 -3 -5 -2 -9 3 -8 20 4 24 -2
12 -18 -10 -11 -10 -14 -1 -9 7 4 12 2 12 -4 0 -6 5 -8 12 -4 8 5 9 2 5 -9 -3
-10 -2 -17 2 -17 8 0 49 -59 60 -85 2 -5 11 -19 20 -29 9 -11 10 -16 4 -12 -7
4 -13 3 -13 -2 0 -5 10 -12 22 -15 18 -5 19 -8 8 -22 -11 -13 -10 -15 4 -9 18
7 22 -6 6 -22 -7 -7 -4 -10 9 -10 11 1 19 -2 18 -5 -1 -3 6 -13 16 -23 9 -10
14 -22 11 -28 -4 -6 -2 -8 3 -5 6 4 18 -4 27 -18 9 -14 14 -25 10 -25 -4 0 5
-9 19 -20 17 -14 24 -27 20 -38 -3 -9 -3 -14 2 -10 4 4 21 -7 36 -25 28 -31
38 -54 20 -42 -5 3 -12 1 -16 -4 -3 -6 3 -8 14 -6 11 2 27 -6 38 -17 12 -15
13 -19 3 -14 -8 5 -2 -3 14 -18 19 -17 26 -31 22 -42 -6 -15 -4 -15 11 -3 10
7 15 9 11 5 -5 -5 1 -16 13 -24 11 -8 18 -20 15 -28 -3 -8 -2 -13 2 -13 23 4
34 -3 28 -17 -3 -8 -2 -13 3 -10 9 6 61 -48 61 -64 0 -5 5 -10 10 -10 6 0 10
-7 10 -15 0 -8 3 -14 8 -13 7 3 122 -106 122 -116 0 -2 -6 -6 -12 -9 -7 -2 -3
-2 10 0 15 2 22 -2 22 -12 0 -9 4 -14 9 -10 13 8 51 -43 44 -61 -3 -8 0 -14 7
-14 6 0 8 5 5 10 -15 24 12 7 46 -30 21 -22 43 -40 49 -40 6 0 8 -4 5 -10 -3
-5 -1 -10 5 -10 15 0 41 -26 33 -34 -6 -6 12 -9 21 -3 10 5 75 -67 69 -76 -4
-6 0 -8 10 -4 9 3 18 0 21 -9 3 -8 13 -14 21 -14 11 0 15 -6 11 -17 -3 -10 -1
-25 5 -33 8 -12 9 -9 4 9 -8 26 -6 25 50 -13 37 -26 45 -37 38 -50 -3 -5 -1
-6 5 -2 15 9 64 -23 55 -37 -4 -6 0 -8 8 -5 8 3 24 -1 34 -9 19 -14 19 -15 -5
-8 -19 5 -21 4 -10 -4 8 -6 23 -11 32 -11 23 0 58 -30 59 -50 0 -10 2 -11 6
-2 3 9 13 6 36 -10 18 -12 34 -26 35 -30 2 -4 9 -8 16 -8 7 0 28 -12 47 -26
19 -14 44 -30 57 -35 13 -5 20 -14 16 -20 -5 -8 -9 -8 -14 1 -5 8 -9 4 -13
-10 -5 -21 -5 -21 20 -5 18 12 28 14 32 6 4 -6 17 -13 29 -16 33 -6 71 -38 72
-60 1 -17 3 -17 8 -4 6 15 10 15 40 -1 22 -12 29 -20 20 -24 -7 -3 -3 -4 10
-2 18 4 22 1 18 -11 -5 -13 -4 -14 8 -4 11 10 18 8 35 -10 16 -18 18 -25 9
-32 -10 -6 -9 -7 2 -4 8 2 14 10 12 17 -2 8 3 10 13 6 9 -3 19 -6 21 -6 3 0 2
-4 -1 -10 -3 -5 3 -10 15 -10 13 0 19 -4 14 -11 -4 -8 1 -9 16 -4 17 5 21 4
15 -6 -6 -9 -3 -11 8 -6 11 4 25 -2 38 -16 12 -12 19 -16 15 -9 -6 10 -2 10
18 0 14 -6 26 -15 26 -21 0 -5 7 -6 15 -3 9 3 18 -1 21 -9 4 -8 9 -13 13 -10
7 4 102 -32 129 -49 10 -6 10 -11 -4 -20 -14 -11 -15 -14 -3 -21 8 -5 11 -5 7
0 -5 5 1 14 11 22 21 14 71 3 71 -16 0 -5 10 -7 22 -3 14 3 19 1 14 -6 -4 -6
1 -11 11 -10 46 0 145 -40 136 -56 -4 -6 1 -5 10 3 20 16 23 2 5 -19 -11 -12
-10 -12 4 -1 13 10 17 10 21 -1 2 -7 3 -5 2 4 -2 11 4 16 16 15 22 -1 25 -13
7 -20 -10 -4 -10 -6 -1 -6 6 -1 14 3 17 8 3 4 21 3 41 -3 24 -8 35 -17 36 -31
0 -18 1 -19 8 -2 9 24 20 26 32 4 6 -9 15 -17 22 -17 7 0 6 4 -3 11 -12 8 -11
9 5 6 11 -2 19 -9 17 -17 -3 -11 0 -11 12 -1 11 9 20 10 35 2 11 -6 24 -10 30
-9 5 2 9 -1 10 -7 1 -5 -3 -10 -8 -10 -5 0 -12 -3 -16 -7 -4 -3 0 -5 9 -4 9 1
21 7 27 13 14 14 88 -3 106 -25 8 -9 12 -11 8 -4 -4 8 2 12 19 12 17 0 26 -6
26 -15 0 -13 3 -13 21 -3 17 11 22 10 33 -5 14 -17 32 -24 21 -8 -3 6 4 9 15
8 11 -1 20 -7 20 -15 0 -7 -4 -11 -8 -8 -4 2 -14 0 -22 -5 -11 -7 -9 -8 8 -6
13 2 27 8 30 14 4 6 16 9 27 7 11 -2 40 -6 65 -9 24 -3 48 -12 53 -20 9 -17
37 -20 37 -5 0 5 -7 7 -15 4 -8 -4 -15 -1 -15 4 0 6 10 9 23 6 12 -2 34 -5 50
-6 16 -1 27 -8 27 -17 0 -11 4 -10 16 5 11 13 14 14 11 3 -3 -9 1 -16 9 -16 7
0 11 3 9 7 -2 3 8 6 23 5 18 0 26 -6 24 -15 -1 -10 3 -8 13 4 10 13 15 15 15
6 0 -7 -8 -22 -17 -32 -14 -16 -14 -18 -1 -13 8 3 21 18 27 33 10 21 14 23 22
11 5 -7 9 -9 9 -4 0 6 5 3 10 -5 5 -8 10 -10 10 -4 0 12 57 13 76 2 10 -7 74
-1 82 7 3 3 11 -3 19 -13 8 -9 12 -12 9 -6 -3 7 19 10 69 10 49 -1 75 -5 75
-12 0 -20 27 -37 36 -23 4 7 3 9 -3 6 -6 -4 -14 0 -17 9 -9 24 -7 28 9 14 8
-7 15 -8 15 -4 0 5 51 9 113 9 61 0 116 2 122 4 19 10 44 7 38 -3 -3 -6 0 -5
8 2 17 16 32 16 23 0 -6 -10 -4 -10 8 0 14 11 18 10 28 -5 10 -16 11 -16 6 -1
-3 10 -1 20 4 23 6 4 10 -1 10 -9 0 -9 5 -16 11 -16 5 0 7 5 3 12 -5 7 -2 9 9
5 9 -3 18 -1 20 6 3 9 10 9 27 -1 16 -10 20 -10 14 -1 -5 9 -2 10 9 6 10 -4
17 -1 17 6 1 7 7 1 16 -13 12 -20 14 -21 12 -5 -2 13 4 20 17 23 16 2 17 1 5
-7 -9 -7 -10 -11 -3 -11 7 0 16 8 22 18 9 16 10 16 16 -1 4 -9 11 -17 16 -17
4 0 6 7 2 15 -7 20 17 16 34 -5 11 -13 12 -13 7 3 -4 10 -3 17 2 16 5 -1 11 0
14 1 11 4 90 18 144 25 16 3 36 -1 43 -7 10 -8 12 -7 8 4 -3 8 0 15 7 16 7 0
22 3 33 5 12 3 27 -4 38 -17 l18 -21 -10 22 c-15 29 -14 33 4 27 8 -4 22 -1
30 6 17 14 21 0 4 -17 -8 -8 -8 -13 0 -18 6 -3 11 -3 10 2 -3 20 2 27 12 13 8
-12 9 -9 4 10 -6 25 -6 25 11 5 13 -16 15 -17 11 -3 -9 27 12 32 23 6 11 -23
11 -23 6 0 -4 24 -4 24 34 26 14 1 35 7 47 14 12 7 29 9 39 5 10 -4 15 -2 11
3 -3 5 6 11 19 12 14 1 33 6 42 11 9 4 25 7 35 6 9 -2 17 0 17 4 0 7 85 36
106 36 6 0 18 6 26 13 17 13 52 6 42 -9 -3 -5 0 -9 6 -9 6 0 9 8 6 18 -4 13 5
21 47 35 28 10 57 19 62 20 6 1 13 7 18 12 4 6 11 4 17 -5 8 -13 10 -12 10 3
0 10 4 16 9 13 5 -3 14 1 21 10 10 12 15 12 21 2 6 -9 10 -8 15 5 3 9 10 17
16 17 5 0 6 -6 2 -12 -4 -7 4 -4 17 8 13 11 49 31 79 43 30 13 61 28 68 34 8
7 16 7 20 1 4 -5 13 -10 21 -12 12 -3 12 -1 0 14 -9 12 -9 15 -1 10 6 -4 12
-3 12 3 0 6 7 7 17 4 12 -5 14 -3 8 7 -6 10 -4 12 8 7 10 -3 17 -2 17 3 0 17
136 80 147 69 8 -8 13 -7 18 2 5 8 4 10 -3 5 -7 -4 -12 -3 -12 2 0 12 40 31
63 30 10 -1 16 -7 13 -14 -3 -8 -1 -16 3 -18 5 -3 8 5 7 17 -1 12 -7 21 -14
19 -7 -1 -12 3 -12 9 0 6 9 9 20 6 11 -3 18 -1 15 3 -3 5 -1 11 4 14 5 4 12
-4 14 -16 4 -21 4 -20 6 3 1 20 10 31 39 45 20 9 39 16 41 15 2 -2 8 5 13 14
6 10 17 14 31 11 12 -3 16 -3 9 0 -6 3 -9 10 -6 15 4 6 11 6 19 -1 10 -8 15
-8 21 1 5 8 3 9 -6 4 -7 -5 -11 -4 -9 3 6 15 108 82 126 82 8 0 11 5 7 13 -4
6 -4 9 0 6 4 -4 24 8 44 27 20 19 42 34 49 34 6 0 19 7 27 16 9 8 16 13 16 9
0 -4 12 7 26 24 14 17 31 31 37 31 7 0 18 9 25 21 7 12 16 19 18 16 3 -3 17 6
32 20 15 13 35 32 45 41 17 16 18 16 12 -3 -4 -11 2 -5 14 13 12 18 26 30 31
27 6 -4 9 -1 8 7 -2 7 5 12 14 12 10 -1 14 4 11 12 -3 8 3 17 13 21 11 3 23
12 27 20 4 7 13 13 18 13 6 0 8 -4 4 -9 -3 -5 0 -13 6 -17 7 -4 9 -3 5 4 -3 5
0 13 6 15 10 4 10 6 1 6 -19 1 -16 21 3 21 8 0 13 4 10 9 -6 9 18 34 25 27 2
-2 10 2 17 10 7 8 10 14 8 14 -3 0 23 27 58 59 35 33 62 62 59 64 -2 3 5 8 16
12 12 3 19 11 16 16 -4 5 5 13 19 19 14 5 26 12 26 15 0 4 -6 3 -13 -1 -6 -4
-4 2 7 14 15 18 22 19 40 10 19 -10 20 -9 8 5 -11 13 -10 19 7 36 12 12 21 25
21 30 0 14 37 20 51 7 10 -8 10 -7 0 6 -7 10 -18 15 -25 11 -6 -3 -1 4 11 15
12 12 27 30 32 39 9 14 12 15 19 5 7 -11 10 -10 15 3 5 10 3 14 -4 9 -7 -4
-10 -1 -7 7 3 8 12 13 21 13 9 -1 13 4 10 11 -2 8 22 46 55 87 32 40 64 83 71
96 7 14 18 21 26 18 10 -3 12 0 8 11 -4 10 -2 14 4 10 6 -4 14 0 17 9 4 10 2
13 -7 8 -7 -5 -6 0 3 11 8 11 20 26 25 33 6 7 18 22 28 33 9 10 17 21 17 24 0
3 0 10 0 16 0 5 5 7 10 4 6 -3 10 1 10 9 0 18 11 20 28 6 7 -5 6 -3 -2 6 -19
22 1 67 27 60 14 -3 16 -1 8 8 -7 9 -6 19 5 34 12 17 22 21 45 17 16 -3 29 -1
29 4 0 4 -10 8 -22 7 -18 -1 -22 4 -20 19 2 11 11 26 20 33 9 6 12 12 8 12 -4
0 1 12 11 27 11 16 30 49 44 76 17 33 29 45 39 42 11 -5 12 -3 4 5 -14 14 14
82 30 73 5 -4 7 1 3 11 -4 10 -1 19 8 22 8 4 13 10 10 14 -3 5 5 19 17 31 13
12 17 19 11 15 -7 -4 -13 -2 -13 3 0 6 5 11 11 11 5 0 7 5 4 10 -3 6 -1 10 4
10 6 0 10 3 10 8 -4 21 3 32 19 32 12 0 14 3 4 8 -9 7 -5 22 18 65 17 31 30
59 30 62 0 22 1 25 10 20 5 -3 7 0 4 8 -3 8 0 18 5 22 6 3 8 11 5 17 -5 7 -2
9 8 6 8 -4 15 0 15 8 0 7 -4 11 -9 8 -4 -3 -5 2 -2 10 3 9 10 13 15 10 5 -3 6
1 4 9 -3 7 2 31 12 53 9 21 16 43 14 48 -1 5 4 6 12 3 7 -3 14 1 14 9 0 7 -4
11 -9 8 -4 -3 -8 -1 -8 4 0 15 26 73 31 68 2 -2 5 10 6 27 1 17 6 33 10 36 5
3 9 12 11 19 5 27 11 57 11 65 1 5 5 6 10 3 4 -3 6 6 3 21 -3 18 -1 24 6 19 8
-4 10 -2 6 7 -4 13 16 102 33 147 4 8 5 21 4 28 -1 6 3 12 9 12 6 0 9 4 5 9
-3 6 -1 29 5 53 6 24 12 52 14 63 2 11 6 34 10 50 3 17 8 41 11 54 2 12 10 30
17 39 11 13 11 14 -1 7 -11 -6 -13 -4 -8 9 4 10 7 27 7 37 0 14 4 18 13 13 8
-5 8 -2 -2 9 -7 9 -11 18 -7 18 3 1 10 2 15 3 5 0 13 5 18 9 4 5 1 7 -7 5 -12
-2 -14 6 -12 42 5 77 8 85 28 82 16 -2 16 -1 4 7 -9 6 -15 27 -16 51 0 33 3
40 15 35 13 -5 14 -4 4 6 -16 16 -17 61 -1 77 9 9 9 12 -2 12 -12 1 -11 4 3
14 15 11 15 15 3 19 -11 4 -13 13 -7 34 4 15 7 54 7 86 -1 31 3 57 7 57 5 0 6
3 4 8 -3 4 -6 106 -8 227 -1 121 -5 225 -8 230 -3 6 -6 42 -8 80 -1 39 -2 70
-3 70 -3 0 -10 43 -15 101 -4 33 -9 74 -11 90 -3 16 -6 48 -7 71 -1 22 -5 39
-9 36 -5 -2 -8 5 -8 16 0 15 5 19 18 15 9 -3 7 0 -6 8 -18 11 -20 16 -10 27
10 11 10 12 1 7 -8 -4 -13 -2 -13 6 0 7 -3 24 -7 37 -5 19 -3 22 8 16 8 -5 7
0 -3 12 -10 11 -18 28 -18 39 0 10 -7 40 -15 67 -10 35 -11 47 -2 47 7 0 6 4
-3 10 -8 5 -10 10 -5 10 6 0 5 4 -1 8 -7 4 -13 23 -15 42 -2 19 -7 37 -11 40
-4 3 -8 20 -10 38 -1 18 -5 32 -8 32 -5 0 -9 18 -12 58 -1 6 -5 12 -10 12 -4
0 -8 10 -8 23 0 13 -4 27 -10 33 -5 5 -11 26 -12 46 -2 20 -7 34 -12 30 -5 -3
-7 2 -3 11 3 10 2 17 -4 17 -6 0 -7 5 -4 10 3 6 1 10 -6 10 -7 0 -10 11 -7 29
2 17 1 28 -3 25 -5 -2 -13 5 -19 16 -6 11 -8 20 -4 20 3 0 1 7 -6 15 -6 8 -9
19 -5 25 3 5 1 10 -6 10 -7 0 -9 10 -6 25 2 14 2 23 -1 21 -8 -8 -31 27 -32
47 0 12 4 16 13 11 7 -4 9 -3 4 2 -5 5 -14 9 -20 9 -7 1 -11 6 -10 13 2 7 -2
12 -8 12 -5 0 -8 4 -4 9 3 5 1 12 -5 16 -15 9 -12 27 3 20 6 -4 1 2 -12 13
-13 10 -21 24 -17 30 3 6 2 12 -3 14 -5 1 -11 10 -13 18 -2 8 -5 17 -9 20 -9
9 -59 109 -59 120 0 6 5 8 12 4 7 -4 8 -3 4 5 -4 6 -11 9 -16 6 -11 -7 -52 70
-43 79 4 3 1 6 -6 6 -7 0 -10 4 -7 9 3 5 0 11 -8 14 -8 3 -20 22 -27 41 -7 20
-17 36 -22 36 -4 0 -5 5 -2 10 3 6 1 10 -5 10 -6 0 -8 5 -5 10 3 6 3 10 -2 10
-4 0 -15 13 -24 29 -13 22 -14 32 -5 41 8 10 8 11 -2 5 -8 -4 -19 0 -27 11
-17 22 -19 38 -5 29 6 -3 7 1 3 10 -4 13 -8 14 -14 4 -9 -15 -52 49 -44 68 2
7 -1 12 -8 10 -7 -1 -11 6 -11 15 1 10 -2 16 -6 13 -11 -7 -33 22 -25 35 4 6
2 9 -3 8 -6 -2 -22 14 -36 36 -23 32 -25 41 -14 55 12 14 11 15 -5 2 -9 -8
-18 -12 -20 -10 -24 42 -25 47 -14 60 10 11 9 11 -4 1 -17 -13 -39 1 -39 24 0
6 -7 14 -15 18 -8 3 -15 11 -15 17 0 6 -8 19 -18 28 -9 9 -29 32 -43 51 -15
19 -36 46 -48 59 -11 13 -18 28 -14 34 3 5 1 7 -5 3 -13 -8 -54 43 -45 57 4 6
1 7 -6 2 -14 -8 -48 33 -43 50 2 5 1 7 -3 3 -9 -8 -75 57 -75 73 0 7 -3 10 -6
7 -8 -8 -74 66 -74 83 0 11 -2 11 -10 -1 -8 -13 -10 -12 -10 3 0 10 -4 15 -10
12 -5 -3 -10 1 -10 9 0 9 -4 16 -10 16 -16 0 -110 97 -102 105 4 5 2 5 -5 2
-13 -8 -46 20 -38 33 3 4 -3 7 -13 6 -9 0 -16 5 -14 12 1 6 -1 11 -5 10 -14
-5 -83 54 -76 65 3 6 1 7 -5 3 -7 -4 -12 -2 -12 3 0 6 -6 10 -12 9 -7 -2 -12
3 -10 10 1 6 -5 12 -12 12 -8 0 -41 22 -73 48 -32 26 -80 63 -108 82 -27 19
-58 42 -68 50 -9 9 -30 23 -45 31 -15 8 -29 17 -32 20 -3 4 -30 21 -60 40 -30
18 -56 37 -58 41 -2 4 -10 8 -17 8 -7 0 -15 3 -17 8 -1 4 -30 22 -63 39 -33
18 -59 37 -58 42 2 6 -3 8 -11 5 -7 -3 -21 2 -29 11 -9 9 -19 15 -22 15 -10
-2 -175 82 -181 92 -3 4 -10 6 -15 3 -5 -4 -9 -1 -9 5 0 6 -4 8 -10 5 -5 -3
-10 -1 -10 4 0 6 -6 11 -14 11 -20 0 -156 66 -150 73 3 3 -1 4 -8 4 -26 -3
-118 35 -112 45 4 6 2 8 -3 5 -10 -7 -51 5 -118 34 -34 14 -30 13 -72 23 -18
4 -33 11 -33 16 0 4 -8 6 -19 3 -10 -3 -22 0 -25 6 -4 6 -18 11 -32 11 -13 0
-24 4 -24 8 0 5 -6 9 -12 10 -33 3 -66 9 -75 15 -5 3 -25 9 -44 12 -19 3 -35
10 -37 15 -2 5 -10 6 -18 3 -8 -3 -20 0 -28 6 -7 6 -15 9 -17 6 -3 -2 -37 4
-77 15 -40 10 -75 18 -77 19 -3 0 -20 3 -38 6 -17 3 -40 7 -49 9 -10 1 -20 5
-24 8 -3 4 -12 4 -20 1 -8 -3 -14 -1 -14 4 0 5 -13 8 -30 5 -16 -2 -30 0 -30
4 0 5 -12 10 -27 10 -80 3 -94 5 -89 12 3 5 -1 9 -9 9 -8 0 -11 -5 -8 -10 4
-7 -1 -7 -13 -3 -10 5 -46 11 -79 13 -33 3 -63 10 -67 17 -6 8 -8 8 -8 -1 0
-8 -11 -11 -30 -8 -79 10 -187 16 -310 18 -79 1 -138 6 -142 12 -5 7 -8 6 -8
-1z"/>
<path d="M6827 9239 c7 -7 15 -10 18 -7 3 3 -2 9 -12 12 -14 6 -15 5 -6 -5z"/>
<path d="M3060 9106 c0 -2 8 -10 18 -17 15 -13 16 -12 3 4 -13 16 -21 21 -21
13z"/>
<path d="M2890 9006 c0 -2 7 -7 16 -10 8 -3 12 -2 9 4 -6 10 -25 14 -25 6z"/>
<path d="M2585 8820 c-3 -6 1 -7 9 -4 18 7 21 14 7 14 -6 0 -13 -4 -16 -10z"/>
<path d="M2465 8720 c-3 -6 1 -7 9 -4 18 7 21 14 7 14 -6 0 -13 -4 -16 -10z"/>
<path d="M2256 8567 c3 -10 9 -15 12 -12 3 3 0 11 -7 18 -10 9 -11 8 -5 -6z"/>
<path d="M1895 8220 c3 -5 8 -10 11 -10 2 0 4 5 4 10 0 6 -5 10 -11 10 -5 0
-7 -4 -4 -10z"/>
<path d="M1236 7362 c-3 -5 1 -9 9 -9 8 0 12 4 9 9 -3 4 -7 8 -9 8 -2 0 -6 -4
-9 -8z"/>
<path d="M1176 7253 c-6 -14 -5 -15 5 -6 7 7 10 15 7 18 -3 3 -9 -2 -12 -12z"/>
<path d="M9046 7258 c3 -5 10 -6 15 -3 13 9 11 12 -6 12 -8 0 -12 -4 -9 -9z"/>
<path d="M1039 6993 c-13 -16 -12 -17 4 -4 16 13 21 21 13 21 -2 0 -10 -8 -17
-17z"/>
<path d="M1000 6960 c-9 -6 -10 -10 -3 -10 6 0 15 5 18 10 8 12 4 12 -15 0z"/>
<path d="M930 6739 c0 -5 5 -7 10 -4 6 3 10 8 10 11 0 2 -4 4 -10 4 -5 0 -10
-5 -10 -11z"/>
<path d="M9415 6451 c-3 -5 -2 -12 3 -15 5 -3 9 1 9 9 0 17 -3 19 -12 6z"/>
<path d="M9450 6319 c0 -5 5 -7 10 -4 6 3 10 8 10 11 0 2 -4 4 -10 4 -5 0 -10
-5 -10 -11z"/>
<path d="M754 6240 c0 -13 4 -16 10 -10 7 7 7 13 0 20 -6 6 -10 3 -10 -10z"/>
<path d="M9485 6200 c-3 -6 1 -7 9 -4 18 7 21 14 7 14 -6 0 -13 -4 -16 -10z"/>
<path d="M9570 5779 c0 -5 5 -7 10 -4 6 3 10 8 10 11 0 2 -4 4 -10 4 -5 0 -10
-5 -10 -11z"/>
<path d="M656 5762 c-3 -5 1 -9 9 -9 8 0 12 4 9 9 -3 4 -7 8 -9 8 -2 0 -6 -4
-9 -8z"/>
<path d="M640 5660 c-9 -6 -10 -10 -3 -10 6 0 15 5 18 10 8 12 4 12 -15 0z"/>
<path d="M636 5622 c-3 -5 1 -9 9 -9 8 0 12 4 9 9 -3 4 -7 8 -9 8 -2 0 -6 -4
-9 -8z"/>
<path d="M9590 5576 c0 -2 8 -10 18 -17 15 -13 16 -12 3 4 -13 16 -21 21 -21
13z"/>
<path d="M615 5560 c3 -5 8 -10 11 -10 2 0 4 5 4 10 0 6 -5 10 -11 10 -5 0 -7
-4 -4 -10z"/>
<path d="M9606 5458 c3 -5 10 -6 15 -3 13 9 11 12 -6 12 -8 0 -12 -4 -9 -9z"/>
<path d="M610 5199 c0 -5 5 -7 10 -4 6 3 10 8 10 11 0 2 -4 4 -10 4 -5 0 -10
-5 -10 -11z"/>
<path d="M9656 5142 c-3 -5 1 -9 9 -9 8 0 12 4 9 9 -3 4 -7 8 -9 8 -2 0 -6 -4
-9 -8z"/>
<path d="M9656 5098 c3 -5 10 -6 15 -3 13 9 11 12 -6 12 -8 0 -12 -4 -9 -9z"/>
<path d="M9629 5018 c7 -9 9 -23 5 -30 -6 -10 -4 -11 7 0 11 10 10 15 -6 30
-17 15 -18 15 -6 0z"/>
<path d="M593 4969 c-2 -23 3 -25 10 -4 4 8 3 16 -1 19 -4 3 -9 -4 -9 -15z"/>
<path d="M9627 4879 c7 -7 15 -10 18 -7 3 3 -2 9 -12 12 -14 6 -15 5 -6 -5z"/>
<path d="M9625 4800 c-3 -6 1 -7 9 -4 18 7 21 14 7 14 -6 0 -13 -4 -16 -10z"/>
<path d="M626 4602 c-3 -5 1 -9 9 -9 8 0 12 4 9 9 -3 4 -7 8 -9 8 -2 0 -6 -4
-9 -8z"/>
<path d="M639 4468 c-5 -15 -4 -50 1 -53 3 -2 6 9 6 26 0 24 -3 37 -7 27z"/>
<path d="M9586 4458 c3 -4 9 -8 15 -8 5 0 9 4 9 8 0 5 -7 9 -15 9 -8 0 -12 -4
-9 -9z"/>
<path d="M655 4300 c3 -5 8 -10 11 -10 2 0 4 5 4 10 0 6 -5 10 -11 10 -5 0 -7
-4 -4 -10z"/>
<path d="M650 4226 c0 -2 7 -7 16 -10 8 -3 12 -2 9 4 -6 10 -25 14 -25 6z"/>
<path d="M686 4202 c-3 -5 1 -9 9 -9 8 0 15 4 15 9 0 4 -4 8 -9 8 -6 0 -12 -4
-15 -8z"/>
<path d="M9553 4165 c0 -8 4 -12 9 -9 5 3 6 10 3 15 -9 13 -12 11 -12 -6z"/>
<path d="M9559 4113 c-13 -16 -12 -17 4 -4 9 7 17 15 17 17 0 8 -8 3 -21 -13z"/>
<path d="M9530 4041 c0 -6 4 -13 10 -16 6 -3 7 1 4 9 -7 18 -14 21 -14 7z"/>
<path d="M713 3996 c-3 -6 -3 -8 2 -4 4 4 13 3 20 -2 8 -7 12 -5 12 3 0 16
-25 18 -34 3z"/>
<path d="M9507 3979 c7 -7 15 -10 18 -7 3 3 -2 9 -12 12 -14 6 -15 5 -6 -5z"/>
<path d="M715 3889 c-4 -6 -5 -12 -2 -15 2 -3 7 2 10 11 7 17 1 20 -8 4z"/>
<path d="M9516 3878 c3 -5 10 -6 15 -3 13 9 11 12 -6 12 -8 0 -12 -4 -9 -9z"/>
<path d="M730 3859 c0 -5 5 -7 10 -4 6 3 10 8 10 11 0 2 -4 4 -10 4 -5 0 -10
-5 -10 -11z"/>
<path d="M781 3834 c0 -11 3 -14 6 -6 3 7 2 16 -1 19 -3 4 -6 -2 -5 -13z"/>
<path d="M754 3796 c1 -8 5 -18 8 -22 4 -3 5 1 4 10 -1 8 -5 18 -8 22 -4 3 -5
-1 -4 -10z"/>
<path d="M9430 3757 c0 -2 6 -10 14 -16 11 -9 16 -9 22 1 4 7 4 10 -1 6 -4 -4
-14 -3 -22 3 -7 6 -13 9 -13 6z"/>
<path d="M9455 3709 c-4 -6 -5 -12 -2 -15 2 -3 7 2 10 11 7 17 1 20 -8 4z"/>
<path d="M839 3633 c-13 -16 -12 -17 4 -4 9 7 17 15 17 17 0 8 -8 3 -21 -13z"/>
<path d="M830 3601 c0 -6 4 -13 10 -16 6 -3 7 1 4 9 -7 18 -14 21 -14 7z"/>
<path d="M9376 3602 c-3 -5 1 -9 9 -9 8 0 12 4 9 9 -3 4 -7 8 -9 8 -2 0 -6 -4
-9 -8z"/>
<path d="M830 3559 c0 -5 5 -7 10 -4 6 3 10 8 10 11 0 2 -4 4 -10 4 -5 0 -10
-5 -10 -11z"/>
<path d="M860 3526 c0 -2 8 -10 18 -17 15 -13 16 -12 3 4 -13 16 -21 21 -21
13z"/>
<path d="M880 3486 c0 -2 8 -10 18 -17 15 -13 16 -12 3 4 -13 16 -21 21 -21
13z"/>
<path d="M9346 3478 c3 -4 9 -8 15 -8 5 0 9 4 9 8 0 5 -7 9 -15 9 -8 0 -12 -4
-9 -9z"/>
<path d="M913 3430 c1 -21 10 -18 13 5 1 8 -2 15 -6 15 -5 0 -8 -9 -7 -20z"/>
<path d="M890 3386 c0 -2 7 -7 16 -10 8 -3 12 -2 9 4 -6 10 -25 14 -25 6z"/>
<path d="M935 3260 c-3 -5 -1 -10 4 -10 6 0 11 5 11 10 0 6 -2 10 -4 10 -3 0
-8 -4 -11 -10z"/>
<path d="M9227 3226 c-4 -10 -1 -13 8 -9 8 3 12 9 9 14 -7 12 -11 11 -17 -5z"/>
<path d="M995 3221 c-3 -5 -2 -12 3 -15 5 -3 9 1 9 9 0 17 -3 19 -12 6z"/>
<path d="M975 3180 c3 -5 8 -10 11 -10 2 0 4 5 4 10 0 6 -5 10 -11 10 -5 0 -7
-4 -4 -10z"/>
<path d="M9200 3166 c0 -2 8 -10 18 -17 15 -13 16 -12 3 4 -13 16 -21 21 -21
13z"/>
<path d="M996 3147 c3 -10 9 -15 12 -12 3 3 0 11 -7 18 -10 9 -11 8 -5 -6z"/>
<path d="M1033 3145 c0 -8 4 -15 9 -15 4 0 8 4 8 9 0 6 -4 12 -8 15 -5 3 -9
-1 -9 -9z"/>
<path d="M9276 3147 c3 -10 9 -15 12 -12 3 3 0 11 -7 18 -10 9 -11 8 -5 -6z"/>
<path d="M9194 3104 c0 -20 11 -25 11 -6 0 4 3 12 7 18 4 6 1 11 -5 11 -7 0
-13 -11 -13 -23z"/>
<path d="M9117 2993 c-10 -9 -9 -23 1 -23 5 0 9 7 9 15 0 17 -1 18 -10 8z"/>
<path d="M9150 2979 c0 -5 5 -7 10 -4 6 3 10 8 10 11 0 2 -4 4 -10 4 -5 0 -10
-5 -10 -11z"/>
<path d="M1130 2959 c0 -5 5 -7 10 -4 6 3 10 8 10 11 0 2 -4 4 -10 4 -5 0 -10
-5 -10 -11z"/>
<path d="M9113 2945 c0 -8 4 -12 9 -9 5 3 6 10 3 15 -9 13 -12 11 -12 -6z"/>
<path d="M9136 2902 c-3 -5 1 -9 9 -9 8 0 12 4 9 9 -3 4 -7 8 -9 8 -2 0 -6 -4
-9 -8z"/>
<path d="M1149 2883 c-13 -16 -12 -17 4 -4 9 7 17 15 17 17 0 8 -8 3 -21 -13z"/>
<path d="M1177 2876 c-4 -10 -1 -13 8 -9 8 3 12 9 9 14 -7 12 -11 11 -17 -5z"/>
<path d="M1180 2846 c0 -2 9 -6 20 -9 11 -3 18 -1 14 4 -5 9 -34 13 -34 5z"/>
<path d="M1174 2822 c4 -3 14 -7 22 -8 9 -1 13 0 10 4 -4 3 -14 7 -22 8 -9 1
-13 0 -10 -4z"/>
<path d="M9050 2816 c0 -2 8 -10 18 -17 15 -13 16 -12 3 4 -13 16 -21 21 -21
13z"/>
<path d="M9015 2799 c-4 -6 -5 -12 -2 -15 2 -3 7 2 10 11 7 17 1 20 -8 4z"/>
<path d="M1195 2760 c-3 -5 -1 -10 4 -10 6 0 11 5 11 10 0 6 -2 10 -4 10 -3 0
-8 -4 -11 -10z"/>
<path d="M1227 2759 c7 -7 15 -10 18 -7 3 3 -2 9 -12 12 -14 6 -15 5 -6 -5z"/>
<path d="M1215 2720 c-3 -5 -1 -10 4 -10 6 0 11 5 11 10 0 6 -2 10 -4 10 -3 0
-8 -4 -11 -10z"/>
<path d="M1293 2678 c0 -13 1 -17 4 -10 3 6 10 9 16 5 7 -4 6 1 -2 10 -17 21
-17 21 -18 -5z"/>
<path d="M8953 2665 c0 -8 4 -12 9 -9 5 3 6 10 3 15 -9 13 -12 11 -12 -6z"/>
<path d="M9035 2671 c-3 -5 -2 -12 3 -15 5 -3 9 1 9 9 0 17 -3 19 -12 6z"/>
<path d="M1300 2646 c0 -2 7 -7 16 -10 8 -3 12 -2 9 4 -6 10 -25 14 -25 6z"/>
<path d="M1245 2620 c-3 -6 1 -7 9 -4 18 7 21 14 7 14 -6 0 -13 -4 -16 -10z"/>
<path d="M8907 2613 c3 -7 6 -13 8 -13 2 0 5 6 8 13 3 8 -1 14 -8 14 -7 0 -11
-6 -8 -14z"/>
<path d="M8935 2580 c3 -5 8 -10 11 -10 2 0 4 5 4 10 0 6 -5 10 -11 10 -5 0
-7 -4 -4 -10z"/>
<path d="M1335 2571 c-3 -5 -2 -12 3 -15 5 -3 9 1 9 9 0 17 -3 19 -12 6z"/>
<path d="M1296 2562 c-3 -5 1 -9 9 -9 8 0 12 4 9 9 -3 4 -7 8 -9 8 -2 0 -6 -4
-9 -8z"/>
<path d="M8890 2539 c0 -5 5 -7 10 -4 6 3 10 8 10 11 0 2 -4 4 -10 4 -5 0 -10
-5 -10 -11z"/>
<path d="M8837 2509 c7 -7 15 -10 18 -7 3 3 -2 9 -12 12 -14 6 -15 5 -6 -5z"/>
<path d="M8855 2469 c-4 -6 -5 -12 -2 -15 2 -3 7 2 10 11 7 17 1 20 -8 4z"/>
<path d="M1370 2459 c0 -5 5 -7 10 -4 6 3 10 8 10 11 0 2 -4 4 -10 4 -5 0 -10
-5 -10 -11z"/>
<path d="M1426 2458 c3 -5 10 -6 15 -3 13 9 11 12 -6 12 -8 0 -12 -4 -9 -9z"/>
<path d="M1415 2420 c3 -5 8 -10 11 -10 2 0 4 5 4 10 0 6 -5 10 -11 10 -5 0
-7 -4 -4 -10z"/>
<path d="M8740 2401 c0 -5 7 -12 16 -15 14 -5 15 -4 4 9 -14 17 -20 19 -20 6z"/>
<path d="M8733 2363 c1 -15 5 -19 13 -13 6 6 15 6 19 2 5 -4 5 -1 1 6 -4 7
-11 10 -16 7 -4 -3 -10 1 -13 7 -3 7 -4 3 -4 -9z"/>
<path d="M1473 2353 c0 -9 4 -10 14 -2 7 6 13 12 13 14 0 1 -6 2 -13 2 -8 0
-14 -6 -14 -14z"/>
<path d="M1529 2344 c5 -3 7 -17 5 -32 -3 -19 -2 -23 5 -13 12 18 7 44 -8 47
-6 1 -7 0 -2 -2z"/>
<path d="M8657 2281 c-4 -17 -3 -21 5 -13 5 5 8 16 6 23 -3 8 -7 3 -11 -10z"/>
<path d="M8690 2259 c0 -5 5 -7 10 -4 6 3 10 8 10 11 0 2 -4 4 -10 4 -5 0 -10
-5 -10 -11z"/>
<path d="M1554 2240 c0 -13 4 -16 10 -10 7 7 7 13 0 20 -6 6 -10 3 -10 -10z"/>
<path d="M8670 2240 c0 -5 5 -10 11 -10 5 0 7 5 4 10 -3 6 -8 10 -11 10 -2 0
-4 -4 -4 -10z"/>
<path d="M1616 2217 c3 -10 9 -15 12 -12 3 3 0 11 -7 18 -10 9 -11 8 -5 -6z"/>
<path d="M8599 2173 c-13 -16 -12 -17 4 -4 16 13 21 21 13 21 -2 0 -10 -8 -17
-17z"/>
<path d="M1627 2159 c7 -7 15 -10 18 -7 3 3 -2 9 -12 12 -14 6 -15 5 -6 -5z"/>
<path d="M8556 2139 c2 -4 -2 -10 -8 -12 -8 -4 -9 -6 -2 -6 6 -1 17 5 23 12 8
10 7 14 -4 14 -8 0 -12 -4 -9 -8z"/>
<path d="M1680 2120 c-12 -7 -10 -9 8 -7 12 0 22 5 22 9 0 11 -12 10 -30 -2z"/>
<path d="M1714 2085 c1 -8 8 -21 16 -28 12 -10 12 -9 2 4 -6 9 -9 18 -6 21 3
3 1 9 -4 12 -6 3 -9 -1 -8 -9z"/>
<path d="M1741 2084 c0 -11 3 -14 6 -6 3 7 2 16 -1 19 -3 4 -6 -2 -5 -13z"/>
<path d="M8490 2078 c0 -4 4 -8 9 -8 6 0 12 4 15 8 3 5 -1 9 -9 9 -8 0 -15 -4
-15 -9z"/>
<path d="M1671 2047 c-8 -10 -7 -14 2 -14 8 0 14 6 14 14 0 7 -1 13 -2 13 -2
0 -8 -6 -14 -13z"/>
<path d="M1758 2053 c7 -3 16 -2 19 1 4 3 -2 6 -13 5 -11 0 -14 -3 -6 -6z"/>
<path d="M8473 2025 c0 -8 4 -12 9 -9 5 3 6 10 3 15 -9 13 -12 11 -12 -6z"/>
<path d="M1746 2018 c3 -4 11 -5 19 -1 21 7 19 12 -4 10 -11 0 -18 -5 -15 -9z"/>
<path d="M1757 1993 c-10 -9 -9 -23 1 -23 5 0 9 7 9 15 0 17 -1 18 -10 8z"/>
<path d="M1795 1980 c-3 -5 -1 -10 4 -10 6 0 11 5 11 10 0 6 -2 10 -4 10 -3 0
-8 -4 -11 -10z"/>
<path d="M8428 1983 c7 -3 16 -2 19 1 4 3 -2 6 -13 5 -11 0 -14 -3 -6 -6z"/>
<path d="M1844 1959 c-3 -6 -1 -16 5 -22 9 -9 10 -7 5 7 -6 15 -4 17 6 11 9
-5 11 -4 6 3 -9 15 -13 15 -22 1z"/>
<path d="M1796 1927 c3 -10 9 -15 12 -12 3 3 0 11 -7 18 -10 9 -11 8 -5 -6z"/>
<path d="M1876 1927 c3 -10 9 -15 12 -12 3 3 0 11 -7 18 -10 9 -11 8 -5 -6z"/>
<path d="M1908 1903 c7 -3 16 -2 19 1 4 3 -2 6 -13 5 -11 0 -14 -3 -6 -6z"/>
<path d="M8416 1898 c3 -5 10 -6 15 -3 13 9 11 12 -6 12 -8 0 -12 -4 -9 -9z"/>
<path d="M8300 1880 c-12 -7 -10 -9 8 -7 12 0 22 5 22 9 0 11 -12 10 -30 -2z"/>
<path d="M8386 1882 c-3 -5 1 -9 9 -9 8 0 12 4 9 9 -3 4 -7 8 -9 8 -2 0 -6 -4
-9 -8z"/>
<path d="M1830 1865 c0 -7 30 -13 34 -7 3 4 -4 9 -15 9 -10 1 -19 0 -19 -2z"/>
<path d="M1926 1858 c3 -5 10 -6 15 -3 13 9 11 12 -6 12 -8 0 -12 -4 -9 -9z"/>
<path d="M1973 1847 c0 -8 6 -14 14 -14 9 0 10 4 2 14 -6 7 -12 13 -14 13 -1
0 -2 -6 -2 -13z"/>
<path d="M8264 1845 c-15 -12 -15 -14 -2 -9 14 5 16 1 12 -22 -3 -16 -2 -25 2
-22 5 6 15 68 10 68 -1 0 -11 -7 -22 -15z"/>
<path d="M8330 1839 c0 -5 5 -7 10 -4 6 3 10 8 10 11 0 2 -4 4 -10 4 -5 0 -10
-5 -10 -11z"/>
<path d="M1955 1810 c-4 -6 -11 -7 -17 -4 -7 4 -8 2 -4 -5 6 -9 11 -9 22 0 14
11 18 19 10 19 -3 0 -8 -5 -11 -10z"/>
<path d="M2033 1765 c0 -7 6 -11 14 -8 7 3 13 6 13 8 0 2 -6 5 -13 8 -8 3 -14
-1 -14 -8z"/>
<path d="M8175 1760 c3 -5 8 -10 11 -10 2 0 4 5 4 10 0 6 -5 10 -11 10 -5 0
-7 -4 -4 -10z"/>
<path d="M8205 1759 c-3 -4 2 -6 10 -5 21 3 28 13 10 13 -9 0 -18 -4 -20 -8z"/>
<path d="M8193 1725 c0 -8 4 -12 9 -9 5 3 6 10 3 15 -9 13 -12 11 -12 -6z"/>
<path d="M2046 1722 c-2 -4 11 -7 30 -8 19 0 32 1 29 4 -7 8 -55 11 -59 4z"/>
<path d="M2110 1696 c0 -3 9 -10 20 -16 11 -6 20 -8 20 -6 0 3 -9 10 -20 16
-11 6 -20 8 -20 6z"/>
<path d="M8090 1680 c0 -5 5 -10 10 -10 6 0 10 5 10 10 0 6 -4 10 -10 10 -5 0
-10 -4 -10 -10z"/>
<path d="M8126 1679 c4 -8 30 -6 38 2 3 3 -5 5 -19 5 -13 0 -22 -3 -19 -7z"/>
<path d="M2095 1640 c-3 -5 -1 -10 4 -10 6 0 11 5 11 10 0 6 -2 10 -4 10 -3 0
-8 -4 -11 -10z"/>
<path d="M2195 1640 c3 -5 8 -10 11 -10 2 0 4 5 4 10 0 6 -5 10 -11 10 -5 0
-7 -4 -4 -10z"/>
<path d="M8120 1640 c-9 -6 -10 -10 -3 -10 6 0 15 5 18 10 8 12 4 12 -15 0z"/>
<path d="M2211 1621 c-8 -5 -16 -17 -17 -26 -1 -9 1 -14 4 -10 4 4 6 9 4 12
-2 3 5 11 15 19 20 15 16 19 -6 5z"/>
<path d="M8026 1621 c-4 -5 3 -7 14 -4 23 6 26 13 6 13 -8 0 -17 -4 -20 -9z"/>
<path d="M2268 1573 c6 -2 10 -8 8 -12 -3 -4 1 -8 9 -8 11 0 12 4 4 14 -6 7
-17 13 -23 12 -7 0 -6 -2 2 -6z"/>
<path d="M2195 1560 c-3 -5 -1 -10 4 -10 6 0 11 5 11 10 0 6 -2 10 -4 10 -3 0
-8 -4 -11 -10z"/>
<path d="M7948 1553 c-4 -13 0 -19 13 -19 14 0 16 3 6 16 -6 8 -12 16 -13 18
-1 1 -4 -5 -6 -15z"/>
<path d="M2115 1529 c-4 -6 -5 -12 -2 -15 2 -3 7 2 10 11 7 17 1 20 -8 4z"/>
<path d="M2250 1499 c0 -5 5 -7 10 -4 6 3 10 8 10 11 0 2 -4 4 -10 4 -5 0 -10
-5 -10 -11z"/>
<path d="M7846 1483 c-6 -14 -5 -15 5 -6 7 7 10 15 7 18 -3 3 -9 -2 -12 -12z"/>
<path d="M2315 1481 c-3 -5 -2 -12 3 -15 5 -3 9 1 9 9 0 17 -3 19 -12 6z"/>
<path d="M7877 1471 c-10 -12 -9 -13 3 -6 8 5 21 10 28 11 24 4 25 13 3 11
-12 -1 -28 -8 -34 -16z"/>
<path d="M2430 1456 c0 -2 8 -10 18 -17 15 -13 16 -12 3 4 -13 16 -21 21 -21
13z"/>
<path d="M2354 1439 c-2 -3 9 -5 24 -4 15 1 33 -3 40 -8 9 -7 11 -6 7 5 -6 15
-62 20 -71 7z"/>
<path d="M7815 1441 c-3 -5 -2 -12 3 -15 5 -3 9 1 9 9 0 17 -3 19 -12 6z"/>
<path d="M7790 1421 c0 -6 4 -13 10 -16 6 -3 7 1 4 9 -7 18 -14 21 -14 7z"/>
<path d="M2446 1403 c-6 -14 -5 -15 5 -6 7 7 10 15 7 18 -3 3 -9 -2 -12 -12z"/>
<path d="M7721 1396 c-9 -11 -9 -16 0 -22 7 -4 9 -3 5 4 -3 5 0 12 6 15 7 2
10 7 7 11 -3 4 -12 0 -18 -8z"/>
<path d="M2480 1386 c0 -2 7 -7 16 -10 8 -3 12 -2 9 4 -6 10 -25 14 -25 6z"/>
<path d="M7786 1378 c3 -5 10 -6 15 -3 13 9 11 12 -6 12 -8 0 -12 -4 -9 -9z"/>
<path d="M2540 1371 c0 -6 4 -13 10 -16 6 -3 7 1 4 9 -7 18 -14 21 -14 7z"/>
<path d="M2467 1359 c7 -7 15 -10 18 -7 3 3 -2 9 -12 12 -14 6 -15 5 -6 -5z"/>
<path d="M7695 1360 c3 -5 8 -10 11 -10 2 0 4 5 4 10 0 6 -5 10 -11 10 -5 0
-7 -4 -4 -10z"/>
<path d="M7739 1353 c-13 -17 -13 -17 6 -3 11 8 22 16 24 17 2 2 0 3 -6 3 -6
0 -17 -8 -24 -17z"/>
<path d="M7676 1342 c-3 -4 4 -9 15 -9 23 -2 25 3 4 10 -8 4 -16 3 -19 -1z"/>
<path d="M7766 1338 c3 -5 10 -6 15 -3 13 9 11 12 -6 12 -8 0 -12 -4 -9 -9z"/>
<path d="M7619 1323 c-13 -16 -12 -17 4 -4 16 13 21 21 13 21 -2 0 -10 -8 -17
-17z"/>
<path d="M2561 1316 c-9 -11 -9 -16 1 -22 7 -4 10 -4 6 1 -4 4 -3 14 3 22 6 7
9 13 6 13 -2 0 -10 -6 -16 -14z"/>
<path d="M2610 1320 c0 -5 5 -10 11 -10 5 0 7 5 4 10 -3 6 -8 10 -11 10 -2 0
-4 -4 -4 -10z"/>
<path d="M7651 1314 c0 -11 3 -14 6 -6 3 7 2 16 -1 19 -3 4 -6 -2 -5 -13z"/>
<path d="M2496 1293 c-6 -14 -5 -15 5 -6 7 7 10 15 7 18 -3 3 -9 -2 -12 -12z"/>
<path d="M2633 1285 c0 -7 6 -11 14 -8 7 3 13 6 13 8 0 2 -6 5 -13 8 -8 3 -14
-1 -14 -8z"/>
<path d="M7566 1282 c-3 -5 1 -9 9 -9 8 0 15 4 15 9 0 4 -4 8 -9 8 -6 0 -12
-4 -15 -8z"/>
<path d="M2710 1261 c0 -6 4 -13 10 -16 6 -3 7 1 4 9 -7 18 -14 21 -14 7z"/>
<path d="M7630 1259 c0 -5 5 -7 10 -4 6 3 10 8 10 11 0 2 -4 4 -10 4 -5 0 -10
-5 -10 -11z"/>
<path d="M7575 1250 c-4 -6 -10 -8 -14 -6 -4 3 -8 -1 -8 -9 0 -10 4 -12 12 -5
7 5 14 8 17 5 2 -3 5 2 5 10 0 18 -3 19 -12 5z"/>
<path d="M2690 1240 c0 -5 5 -10 11 -10 5 0 7 5 4 10 -3 6 -8 10 -11 10 -2 0
-4 -4 -4 -10z"/>
<path d="M2655 1220 c3 -5 8 -10 11 -10 2 0 4 5 4 10 0 6 -5 10 -11 10 -5 0
-7 -4 -4 -10z"/>
<path d="M2722 1218 c-15 -15 -16 -28 -2 -28 6 0 9 6 8 13 -2 6 3 11 10 9 8
-1 11 2 7 8 -8 13 -8 13 -23 -2z"/>
<path d="M7430 1190 c0 -5 5 -10 11 -10 5 0 7 5 4 10 -3 6 -8 10 -11 10 -2 0
-4 -4 -4 -10z"/>
<path d="M2814 1182 c3 -6 -2 -13 -11 -15 -16 -4 -16 -5 -1 -6 21 -1 32 15 17
25 -7 4 -9 3 -5 -4z"/>
<path d="M7468 1183 c7 -3 16 -2 19 1 4 3 -2 6 -13 5 -11 0 -14 -3 -6 -6z"/>
<path d="M2870 1148 c-10 -21 -10 -21 3 -6 8 10 18 14 22 10 5 -4 5 -1 1 6
-10 17 -14 15 -26 -10z"/>
<path d="M7398 1143 c7 -3 16 -2 19 1 4 3 -2 6 -13 5 -11 0 -14 -3 -6 -6z"/>
<path d="M2715 1131 c-3 -5 -2 -12 3 -15 5 -3 9 1 9 9 0 17 -3 19 -12 6z"/>
<path d="M2900 1135 c0 -5 5 -17 10 -25 5 -8 10 -10 10 -5 0 6 -5 17 -10 25
-5 8 -10 11 -10 5z"/>
<path d="M7295 1119 c-6 -8 -4 -10 5 -4 10 6 12 4 6 -11 -6 -15 -5 -17 5 -6 9
9 10 15 2 23 -8 8 -13 7 -18 -2z"/>
<path d="M2955 1109 c-4 -6 -5 -12 -2 -15 2 -3 7 2 10 11 7 17 1 20 -8 4z"/>
<path d="M2962 1084 c-7 -8 -8 -14 -3 -14 10 0 25 19 20 25 -2 1 -10 -3 -17
-11z"/>
<path d="M7395 1091 c-3 -5 -2 -12 3 -15 5 -3 9 1 9 9 0 17 -3 19 -12 6z"/>
<path d="M7356 1073 c-6 -14 -5 -15 5 -6 7 7 10 15 7 18 -3 3 -9 -2 -12 -12z"/>
<path d="M3026 1043 l-17 -28 20 23 c20 23 37 30 25 10 -4 -7 -3 -8 5 -4 12 8
6 26 -8 26 -5 0 -16 -12 -25 -27z"/>
<path d="M7179 1067 c-6 -8 -4 -45 2 -41 4 2 6 11 3 19 -4 10 0 12 15 8 12 -3
21 -3 21 0 0 4 -38 17 -41 14z"/>
<path d="M2955 1051 c-3 -5 -2 -12 3 -15 5 -3 9 1 9 9 0 17 -3 19 -12 6z"/>
<path d="M7273 1045 c0 -8 4 -12 9 -9 5 3 6 10 3 15 -9 13 -12 11 -12 -6z"/>
<path d="M2850 1041 c0 -6 4 -13 10 -16 6 -3 7 1 4 9 -7 18 -14 21 -14 7z"/>
<path d="M7239 1033 c-13 -16 -12 -17 4 -4 16 13 21 21 13 21 -2 0 -10 -8 -17
-17z"/>
<path d="M3095 1020 c-3 -6 1 -13 9 -16 9 -3 14 -10 11 -14 -3 -5 -1 -11 4
-14 5 -4 8 2 7 11 -2 9 -8 19 -14 21 -7 2 -10 8 -6 13 3 5 3 9 0 9 -3 0 -8 -5
-11 -10z"/>
<path d="M7108 996 c4 -6 7 -14 7 -18 0 -19 11 -14 11 6 0 12 -6 23 -13 23 -6
0 -9 -5 -5 -11z"/>
<path d="M3147 986 c-4 -10 -1 -13 8 -9 8 3 12 9 9 14 -7 12 -11 11 -17 -5z"/>
<path d="M7070 986 c0 -2 7 -7 16 -10 8 -3 12 -2 9 4 -6 10 -25 14 -25 6z"/>
<path d="M3255 959 c-4 -6 -5 -12 -2 -15 2 -3 7 2 10 11 7 17 1 20 -8 4z"/>
<path d="M6975 960 c-3 -5 -1 -10 4 -10 6 0 11 5 11 10 0 6 -2 10 -4 10 -3 0
-8 -4 -11 -10z"/>
<path d="M3270 940 c0 -5 5 -10 11 -10 5 0 7 5 4 10 -3 6 -8 10 -11 10 -2 0
-4 -4 -4 -10z"/>
<path d="M6917 935 c-8 -8 -18 -11 -22 -7 -5 4 -5 1 -1 -6 7 -11 11 -10 25 2
10 9 21 13 26 9 4 -5 5 -2 1 5 -9 15 -11 15 -29 -3z"/>
<path d="M3175 920 c3 -5 8 -10 11 -10 2 0 4 5 4 10 0 6 -5 10 -11 10 -5 0 -7
-4 -4 -10z"/>
<path d="M3230 921 c0 -6 4 -13 10 -16 6 -3 7 1 4 9 -7 18 -14 21 -14 7z"/>
<path d="M7040 920 c-12 -7 -10 -9 7 -7 12 0 19 5 17 9 -6 10 -6 10 -24 -2z"/>
<path d="M3320 916 c0 -2 7 -7 16 -10 8 -3 12 -2 9 4 -6 10 -25 14 -25 6z"/>
<path d="M6955 911 c-3 -5 -2 -12 3 -15 5 -3 9 1 9 9 0 17 -3 19 -12 6z"/>
<path d="M3375 899 c-4 -6 -4 -13 -1 -16 3 -4 6 -1 6 6 0 7 5 9 12 5 7 -4 8
-3 4 4 -9 15 -13 15 -21 1z"/>
<path d="M6865 900 c-3 -6 1 -7 9 -4 18 7 21 14 7 14 -6 0 -13 -4 -16 -10z"/>
<path d="M6886 885 c-18 -14 -18 -14 1 -12 11 0 20 7 20 14 0 7 -1 13 -1 13
-1 0 -9 -7 -20 -15z"/>
<path d="M6933 885 c0 -8 4 -12 9 -9 5 3 6 10 3 15 -9 13 -12 11 -12 -6z"/>
<path d="M3436 874 c-23 -23 -20 -30 4 -9 11 10 20 20 20 22 0 7 -9 2 -24 -13z"/>
<path d="M6790 880 c0 -5 5 -10 11 -10 5 0 7 5 4 10 -3 6 -8 10 -11 10 -2 0
-4 -4 -4 -10z"/>
<path d="M3494 858 c-4 -7 -3 -8 4 -4 7 4 12 3 12 -2 0 -6 7 -12 14 -15 10 -4
13 -1 10 8 -7 18 -32 27 -40 13z"/>
<path d="M6774 862 c7 -12 -5 -16 -31 -13 -7 1 -13 -2 -13 -7 0 -4 11 -8 25
-8 26 0 41 21 23 32 -7 4 -8 3 -4 -4z"/>
<path d="M6822 845 c15 -16 20 -17 30 -6 11 11 10 13 0 7 -7 -4 -21 -2 -30 5
-15 12 -15 11 0 -6z"/>
<path d="M3550 820 c0 -5 5 -10 10 -10 6 0 10 5 10 10 0 6 -4 10 -10 10 -5 0
-10 -4 -10 -10z"/>
<path d="M3466 802 c-2 -4 4 -8 14 -8 10 0 16 4 14 8 -3 4 -9 8 -14 8 -5 0
-11 -4 -14 -8z"/>
<path d="M6650 802 c0 -5 7 -9 15 -9 8 0 12 4 9 9 -3 4 -9 8 -15 8 -5 0 -9 -4
-9 -8z"/>
<path d="M6890 806 c0 -2 7 -7 16 -10 8 -3 12 -2 9 4 -6 10 -25 14 -25 6z"/>
<path d="M3638 788 c-7 -17 15 -19 29 -3 4 4 3 5 -4 2 -6 -4 -13 -2 -15 5 -3
8 -6 6 -10 -4z"/>
<path d="M3681 793 c-1 -17 16 -25 25 -12 4 7 3 9 -4 5 -5 -3 -13 0 -15 6 -4
9 -6 10 -6 1z"/>
<path d="M6510 780 c0 -5 5 -10 10 -10 6 0 10 5 10 10 0 6 -4 10 -10 10 -5 0
-10 -4 -10 -10z"/>
<path d="M6543 778 c-4 -7 -1 -8 7 -3 10 6 12 3 7 -11 -7 -18 -6 -18 6 -2 8
10 16 17 18 15 2 -1 3 0 1 2 -6 10 -32 9 -39 -1z"/>
<path d="M6716 782 c-3 -5 1 -9 9 -9 8 0 12 4 9 9 -3 4 -7 8 -9 8 -2 0 -6 -4
-9 -8z"/>
<path d="M6653 765 c0 -8 4 -12 9 -9 5 3 6 10 3 15 -9 13 -12 11 -12 -6z"/>
<path d="M3713 755 c0 -8 4 -12 9 -9 5 3 6 10 3 15 -9 13 -12 11 -12 -6z"/>
<path d="M6470 760 c0 -5 7 -6 17 -3 12 5 14 3 8 -7 -5 -9 -4 -11 4 -6 6 4 9
12 6 17 -8 12 -35 12 -35 -1z"/>
<path d="M6870 759 c0 -5 5 -7 10 -4 6 3 10 8 10 11 0 2 -4 4 -10 4 -5 0 -10
-5 -10 -11z"/>
<path d="M3565 740 c-3 -6 1 -7 9 -4 18 7 21 14 7 14 -6 0 -13 -4 -16 -10z"/>
<path d="M3670 736 c7 -7 13 -7 20 0 6 6 3 10 -10 10 -13 0 -16 -4 -10 -10z"/>
<path d="M3815 741 c-3 -5 0 -13 6 -17 7 -4 9 -3 5 4 -3 5 0 13 6 15 9 4 10 6
1 6 -6 1 -14 -3 -18 -8z"/>
<path d="M6426 741 c-4 -5 3 -7 14 -4 23 6 26 13 6 13 -8 0 -17 -4 -20 -9z"/>
<path d="M6380 731 c0 -6 4 -13 10 -16 6 -3 7 1 4 9 -7 18 -14 21 -14 7z"/>
<path d="M3840 715 c-7 -9 -10 -18 -7 -21 3 -3 10 4 17 15 13 25 8 27 -10 6z"/>
<path d="M6316 721 c-3 -5 2 -15 12 -22 15 -12 16 -12 5 2 -7 9 -10 19 -6 22
3 4 4 7 0 7 -3 0 -8 -4 -11 -9z"/>
<path d="M6435 721 c-3 -5 -2 -12 3 -15 5 -3 9 1 9 9 0 17 -3 19 -12 6z"/>
<path d="M3866 703 c-6 -14 -5 -15 5 -6 7 7 10 15 7 18 -3 3 -9 -2 -12 -12z"/>
<path d="M6283 706 c18 -14 18 -15 0 -25 -10 -6 -13 -11 -7 -11 6 0 17 6 23
14 10 12 8 17 -11 26 -21 10 -22 10 -5 -4z"/>
<path d="M3670 700 c0 -4 7 -7 15 -6 23 3 26 12 5 13 -11 1 -20 -2 -20 -7z"/>
<path d="M3910 700 c0 -5 5 -10 10 -10 6 0 10 5 10 10 0 6 -4 10 -10 10 -5 0
-10 -4 -10 -10z"/>
<path d="M6250 700 c0 -5 5 -10 11 -10 5 0 7 5 4 10 -3 6 -8 10 -11 10 -2 0
-4 -4 -4 -10z"/>
<path d="M6356 702 c-3 -5 1 -9 9 -9 8 0 12 4 9 9 -3 4 -7 8 -9 8 -2 0 -6 -4
-9 -8z"/>
<path d="M3956 681 c-3 -4 6 -7 19 -7 14 0 22 2 19 5 -8 8 -34 10 -38 2z"/>
<path d="M4087 679 c7 -7 15 -10 18 -7 3 3 -2 9 -12 12 -14 6 -15 5 -6 -5z"/>
<path d="M6210 678 c0 -6 3 -8 7 -5 3 4 16 -1 27 -10 21 -18 21 -18 2 5 -21
24 -36 29 -36 10z"/>
<path d="M6435 670 c-4 -6 -11 -7 -17 -4 -7 4 -8 2 -4 -5 6 -9 11 -9 22 0 14
11 18 19 10 19 -3 0 -8 -5 -11 -10z"/>
<path d="M4075 660 c6 -10 4 -12 -8 -7 -21 8 -22 3 -3 -12 10 -9 15 -8 19 3 4
9 1 18 -5 22 -7 5 -8 2 -3 -6z"/>
<path d="M4151 665 c1 -19 18 -51 18 -35 0 8 -4 22 -9 30 -5 8 -9 11 -9 5z"/>
<path d="M6193 650 c-1 -11 2 -22 6 -24 4 -3 7 4 6 14 -2 27 -10 33 -12 10z"/>
<path d="M6310 659 c0 -5 5 -7 10 -4 6 3 10 8 10 11 0 2 -4 4 -10 4 -5 0 -10
-5 -10 -11z"/>
<path d="M6370 659 c0 -5 5 -7 10 -4 6 3 10 8 10 11 0 2 -4 4 -10 4 -5 0 -10
-5 -10 -11z"/>
<path d="M3976 647 c3 -10 9 -15 12 -12 3 3 0 11 -7 18 -10 9 -11 8 -5 -6z"/>
<path d="M4122 647 c10 -8 14 -18 10 -22 -4 -5 -1 -5 6 -1 17 10 15 14 -10 26
-21 10 -21 10 -6 -3z"/>
<path d="M4191 633 c-10 -26 -10 -27 4 -9 8 11 15 23 15 28 0 15 -7 8 -19 -19z"/>
<path d="M4255 639 c-4 -6 -5 -12 -2 -15 2 -3 7 2 10 11 7 17 1 20 -8 4z"/>
<path d="M5987 631 c-4 -17 -3 -21 5 -13 5 5 8 16 6 23 -3 8 -7 3 -11 -10z"/>
<path d="M6033 632 c2 -12 9 -28 17 -35 10 -10 11 -9 4 3 -5 8 -9 21 -10 28
-2 8 -5 17 -8 20 -4 3 -5 -4 -3 -16z"/>
<path d="M5900 631 c0 -4 -11 -7 -25 -6 -14 2 -23 0 -20 -4 7 -12 48 -6 53 7
2 7 1 12 -2 12 -3 0 -6 -4 -6 -9z"/>
<path d="M4270 620 c0 -5 5 -10 11 -10 5 0 7 5 4 10 -3 6 -8 10 -11 10 -2 0
-4 -4 -4 -10z"/>
<path d="M5950 620 c0 -5 5 -10 11 -10 5 0 7 5 4 10 -3 6 -8 10 -11 10 -2 0
-4 -4 -4 -10z"/>
<path d="M4036 607 c3 -10 9 -15 12 -12 3 3 0 11 -7 18 -10 9 -11 8 -5 -6z"/>
<path d="M4370 605 c0 -8 4 -15 10 -15 5 0 7 7 4 15 -4 8 -8 15 -10 15 -2 0
-4 -7 -4 -15z"/>
<path d="M4398 613 c7 -3 16 -2 19 1 4 3 -2 6 -13 5 -11 0 -14 -3 -6 -6z"/>
<path d="M5813 601 c0 -11 5 -18 9 -15 4 3 5 11 1 19 -7 21 -12 19 -10 -4z"/>
<path d="M5830 616 c0 -2 8 -10 18 -17 15 -13 16 -12 3 4 -13 16 -21 21 -21
13z"/>
<path d="M4090 600 c0 -5 5 -10 11 -10 5 0 7 5 4 10 -3 6 -8 10 -11 10 -2 0
-4 -4 -4 -10z"/>
<path d="M4340 600 c-9 -6 -10 -10 -3 -10 6 0 15 5 18 10 8 12 4 12 -15 0z"/>
<path d="M5906 602 c-3 -5 1 -9 9 -9 8 0 15 4 15 9 0 4 -4 8 -9 8 -6 0 -12 -4
-15 -8z"/>
<path d="M4552 591 c-10 -6 -9 -10 7 -14 12 -3 24 0 28 5 3 6 1 8 -5 4 -5 -3
-12 -2 -14 4 -2 5 -9 6 -16 1z"/>
<path d="M5870 596 c0 -2 8 -10 18 -17 15 -13 16 -12 3 4 -13 16 -21 21 -21
13z"/>
<path d="M4428 583 c7 -3 16 -2 19 1 4 3 -2 6 -13 5 -11 0 -14 -3 -6 -6z"/>
<path d="M5694 582 c3 -5 0 -13 -6 -15 -9 -4 -10 -6 -1 -6 17 -1 25 16 12 25
-7 4 -9 3 -5 -4z"/>
<path d="M5739 588 c-9 -31 -6 -37 14 -27 32 17 35 22 8 14 -16 -5 -21 -4 -17
4 4 6 5 11 2 11 -3 0 -6 -1 -7 -2z"/>
<path d="M5950 579 c0 -5 5 -7 10 -4 6 3 10 8 10 11 0 2 -4 4 -10 4 -5 0 -10
-5 -10 -11z"/>
<path d="M4459 578 c-5 -9 -5 -48 -1 -43 6 6 11 45 5 45 -2 0 -4 -1 -4 -2z"/>
<path d="M4788 569 c-4 -11 1 -15 18 -15 13 0 24 4 24 9 0 5 -6 7 -14 4 -8 -3
-16 -1 -19 6 -2 7 -6 5 -9 -4z"/>
<path d="M5600 570 c-23 -7 -23 -8 -3 -9 12 -1 25 4 28 9 3 6 5 10 3 9 -2 -1
-14 -5 -28 -9z"/>
<path d="M5916 567 c3 -10 9 -15 12 -12 3 3 0 11 -7 18 -10 9 -11 8 -5 -6z"/>
<path d="M4376 558 c3 -5 10 -6 15 -3 13 9 11 12 -6 12 -8 0 -12 -4 -9 -9z"/>
<path d="M4416 558 c3 -5 10 -6 15 -3 13 9 11 12 -6 12 -8 0 -12 -4 -9 -9z"/>
<path d="M4525 560 c-3 -6 1 -7 9 -4 18 7 21 14 7 14 -6 0 -13 -4 -16 -10z"/>
<path d="M4630 559 c0 -5 5 -7 10 -4 6 3 10 8 10 11 0 2 -4 4 -10 4 -5 0 -10
-5 -10 -11z"/>
<path d="M4735 560 c-3 -6 1 -7 9 -4 18 7 21 14 7 14 -6 0 -13 -4 -16 -10z"/>
<path d="M4920 560 c0 -5 5 -10 10 -10 6 0 10 5 10 10 0 6 -4 10 -10 10 -5 0
-10 -4 -10 -10z"/>
<path d="M4985 560 c-3 -5 -1 -10 4 -10 6 0 11 5 11 10 0 6 -2 10 -4 10 -3 0
-8 -4 -11 -10z"/>
<path d="M5030 566 c0 -2 7 -7 16 -10 8 -3 12 -2 9 4 -6 10 -25 14 -25 6z"/>
<path d="M5070 560 c0 -5 9 -14 20 -20 11 -6 20 -9 20 -8 0 2 -9 11 -20 21
-11 9 -20 13 -20 7z"/>
<path d="M5181 554 c0 -11 3 -14 6 -6 3 7 2 16 -1 19 -3 4 -6 -2 -5 -13z"/>
<path d="M5211 554 c0 -11 3 -14 6 -6 3 7 2 16 -1 19 -3 4 -6 -2 -5 -13z"/>
<path d="M5295 560 c-3 -5 -1 -10 4 -10 6 0 11 5 11 10 0 6 -2 10 -4 10 -3 0
-8 -4 -11 -10z"/>
<path d="M5345 560 c3 -5 11 -10 16 -10 6 0 7 5 4 10 -3 6 -11 10 -16 10 -6 0
-7 -4 -4 -10z"/>
<path d="M5390 566 c0 -2 7 -7 16 -10 8 -3 12 -2 9 4 -6 10 -25 14 -25 6z"/>
<path d="M5468 554 c-6 -22 12 -28 29 -9 4 4 3 5 -4 1 -7 -3 -13 1 -15 11 -3
15 -5 15 -10 -3z"/>
<path d="M5799 553 c-13 -16 -12 -17 4 -4 16 13 21 21 13 21 -2 0 -10 -8 -17
-17z"/>
<path d="M6390 559 c0 -5 5 -7 10 -4 6 3 10 8 10 11 0 2 -4 4 -10 4 -5 0 -10
-5 -10 -11z"/>
<path d="M5270 551 c0 -6 4 -13 10 -16 6 -3 7 1 4 9 -7 18 -14 21 -14 7z"/>
<path d="M5427 547 c-3 -8 0 -14 7 -14 7 0 13 6 13 14 0 7 -4 13 -8 13 -4 0
-9 -6 -12 -13z"/>
<path d="M4330 540 c0 -5 5 -10 11 -10 5 0 7 5 4 10 -3 6 -8 10 -11 10 -2 0
-4 -4 -4 -10z"/>
<path d="M4753 543 c4 -3 1 -13 -6 -22 -11 -14 -10 -14 6 -2 20 15 22 31 5 31
-6 0 -8 -3 -5 -7z"/>
<path d="M4835 541 c-3 -5 0 -13 6 -17 8 -5 9 -3 4 6 -6 10 -4 12 9 7 10 -4
15 -3 11 3 -8 13 -22 13 -30 1z"/>
<path d="M4954 525 c0 -28 8 -24 13 5 2 11 -1 20 -5 20 -4 0 -8 -11 -8 -25z"/>
<path d="M5335 543 c3 -3 -2 -14 -11 -24 -10 -11 -12 -19 -4 -24 6 -4 9 -1 8
7 -2 7 2 12 9 11 12 -2 12 23 0 32 -4 3 -5 2 -2 -2z"/>
<path d="M5379 548 c-7 -23 -5 -37 4 -35 7 1 11 -4 9 -11 -1 -8 2 -11 8 -7 8
5 6 13 -4 24 -9 10 -13 21 -9 24 3 4 3 7 0 7 -4 0 -7 -1 -8 -2z"/>
<path d="M5586 542 c-2 -4 4 -8 14 -8 10 0 16 4 14 8 -3 4 -9 8 -14 8 -5 0
-11 -4 -14 -8z"/>
<path d="M5850 539 c0 -5 5 -7 10 -4 6 3 10 8 10 11 0 2 -4 4 -10 4 -5 0 -10
-5 -10 -11z"/>
<path d="M5155 529 c-4 -6 -5 -12 -2 -15 2 -3 7 2 10 11 7 17 1 20 -8 4z"/>
<path d="M5234 520 c0 -13 4 -16 10 -10 7 7 7 13 0 20 -6 6 -10 3 -10 -10z"/>
<path d="M4676 518 c3 -5 10 -6 15 -3 13 9 11 12 -6 12 -8 0 -12 -4 -9 -9z"/>
<path d="M4879 513 c-13 -16 -12 -17 3 -5 9 8 23 10 29 6 8 -4 9 -3 5 4 -10
17 -21 15 -37 -5z"/>
<path d="M5193 515 c0 -8 4 -12 9 -9 4 3 8 9 8 15 0 5 -4 9 -8 9 -5 0 -9 -7
-9 -15z"/>
<path d="M4616 502 c-3 -4 4 -9 15 -9 23 -2 25 3 4 10 -8 4 -16 3 -19 -1z"/>
<path d="M5645 500 c-3 -6 1 -7 9 -4 18 7 21 14 7 14 -6 0 -13 -4 -16 -10z"/>
<path d="M4886 478 c3 -5 10 -6 15 -3 13 9 11 12 -6 12 -8 0 -12 -4 -9 -9z"/>
<path d="M5136 478 c3 -5 10 -6 15 -3 13 9 11 12 -6 12 -8 0 -12 -4 -9 -9z"/>
<path d="M5190 461 c0 -6 4 -13 10 -16 6 -3 7 1 4 9 -7 18 -14 21 -14 7z"/>
</g>
</svg>
